<svg width="238" height="60" viewBox="0 0 238 60" fill="none" xmlns="http://www.w3.org/2000/svg">
<path fill-rule="evenodd" clip-rule="evenodd" d="M52.6147 27.1986C52.4349 26.2692 52.0899 25.3796 51.596 24.572C51.0955 23.7445 50.5358 22.9542 49.9214 22.2074C49.2565 21.473 48.4246 20.9094 47.4961 20.5642C46.5583 20.2441 45.5892 20.0243 44.6051 19.9082H18.4578V17.5435H45.5207C46.5388 17.4076 47.5143 17.0486 48.3777 16.4921C49.282 15.9183 50.1287 15.2584 50.906 14.5215C51.4742 13.734 51.9074 12.8574 52.1878 11.9277C52.466 11.0239 52.6098 10.0842 52.6147 9.13858C52.4781 8.20146 52.1915 7.29246 51.7658 6.44648C51.3323 5.58189 50.8035 4.76841 50.1894 4.02117C49.4239 3.44109 48.5977 2.94587 47.7253 2.54418C46.7954 2.11826 45.8124 1.81965 44.8028 1.65648H10.1208C8.83578 1.65097 7.56713 1.94501 6.41551 2.51524C5.26389 3.08547 4.26099 3.91622 3.48638 4.94158C3.00733 5.54958 2.62002 6.22453 2.33679 6.9449C2.05391 7.6605 1.82331 8.39568 1.64679 9.14465C1.69044 9.67094 1.72359 10.1637 1.74623 10.6229C1.76711 11.0722 1.75619 11.5224 1.71351 11.9701V25.37C1.71351 25.855 1.72319 26.3001 1.74623 26.716C1.76927 27.1319 1.80082 27.5151 1.84448 27.8656C2.02164 28.792 2.3312 29.688 2.76367 30.5262C3.20119 31.3798 3.72973 32.1836 4.3401 32.9236C5.00936 33.6605 5.8392 34.2335 6.76541 34.5983C7.71694 34.9433 8.71206 35.1536 9.72185 35.2228H35.9297V37.5874H8.73598C7.71783 37.7225 6.74219 38.0811 5.87898 38.6376C4.98837 39.2023 4.16245 39.8632 3.41607 40.6082C2.26736 42.1696 1.64593 44.0564 1.64194 45.9948C1.76437 46.9355 2.05174 47.8472 2.49081 48.6881C2.9515 49.5592 3.47852 50.3935 4.06725 51.1837C5.66876 52.3547 7.50674 53.1618 9.45266 53.5484H44.1346C45.4282 53.5505 46.7051 53.2555 47.8667 52.6862C49.0283 52.1168 50.0437 51.2883 50.8345 50.2645C51.3111 49.6605 51.6882 48.9842 51.9513 48.2612C52.2192 47.5208 52.4388 46.7637 52.6086 45.9948V27.1986H52.6147ZM54.5549 25.6549C55.088 26.5637 55.4759 27.5502 55.7045 28.5786V47.8902C55.4838 48.7665 55.232 49.6202 54.949 50.4513C54.6466 51.3145 54.1901 52.1157 53.6018 52.816C52.6757 54.0051 51.4898 54.9666 50.135 55.627C48.7801 56.2874 47.2922 56.6291 45.785 56.6261H11.0958C8.7791 56.1727 6.58508 55.2323 4.65903 53.8673L3.74469 52.9457C3.58046 52.8654 3.42622 52.7661 3.2851 52.6498C3.15292 52.5407 3.02194 52.4425 2.89097 52.3539C2.17165 51.4325 1.54456 50.4427 1.01866 49.3987C0.513366 48.3852 0.169638 47.2989 0 46.1791C0.020527 43.7148 0.827812 41.3215 2.30407 39.3482C2.83763 38.8158 3.40818 38.3218 4.01148 37.87C4.63098 37.408 5.29045 37.0022 5.98204 36.6573C5.81372 36.5323 5.65961 36.3891 5.52245 36.2305C5.39148 36.0777 5.23748 35.914 5.06286 35.7382L4.73423 35.475C4.13558 35.0544 3.58496 34.5692 3.09229 34.0283C2.38165 33.1597 1.75474 32.2259 1.21995 31.2392C0.734574 30.345 0.39134 29.3807 0.202541 28.381C0.158885 28.0317 0.126114 27.6255 0.104287 27.1683C0.0824587 26.7112 0.0703508 26.1072 0.0703508 25.3627V10.447C0.0693842 10.1174 0.047493 9.78805 0.00484795 9.46113V9.06704C0.216845 8.13021 0.491113 7.20854 0.825818 6.30822C1.15974 5.4274 1.63711 4.6079 2.23857 3.88292C3.15789 2.66525 4.34978 1.67997 5.71862 1.00608C7.08747 0.332189 8.59516 -0.0115404 10.1208 0.00244305H44.9992C46.1905 0.197864 47.3503 0.551449 48.448 1.05382C49.4561 1.52393 50.4135 2.09604 51.305 2.76122C51.4208 2.95808 51.5526 3.14505 51.6991 3.32026C51.8459 3.49485 51.9777 3.68143 52.0932 3.87807L52.8208 4.53535C53.5612 5.40618 54.1902 6.36591 54.6932 7.39235C55.1887 8.39789 55.532 9.47152 55.7118 10.578C55.7092 11.7343 55.543 12.8843 55.2182 13.994C54.9149 15.0828 54.4143 16.1067 53.7412 17.0148C53.1436 17.6145 52.5071 18.1743 51.8361 18.6907C51.183 19.1914 50.4781 19.6207 49.7334 19.9712C50.1716 20.3213 50.6316 20.7154 51.1134 21.1535C51.288 21.373 51.4517 21.5804 51.6057 21.7781C51.7597 21.9757 51.9235 22.1831 52.0981 22.4014L52.6244 22.9265C53.3462 23.7796 53.9914 24.6946 54.5525 25.661L54.5549 25.6549ZM54.259 46.3137C54.4343 47.1919 54.6984 48.05 55.0473 48.8748C55.4203 49.7431 55.9059 50.5585 56.4915 51.3002C57.2015 52.191 58.0435 52.968 58.9884 53.6042L59.1194 53.7364C60.0211 54.6681 61.1042 55.4051 62.3017 55.9021C63.4993 56.3991 64.786 56.6455 66.0824 56.6261L66.8706 56.5606C68.1399 56.2534 69.2782 55.958 70.2855 55.6742C71.3063 55.3822 72.2639 54.9032 73.1097 54.2614C73.5739 53.6373 73.9497 52.9522 74.2266 52.2254C74.4902 51.5261 74.7327 50.8034 74.9542 50.0572C75.0479 49.6452 75.1695 49.2401 75.318 48.8445C75.4708 48.4286 75.6139 48.0466 75.7448 47.6949V38.3017H100.639C101.783 38.1897 102.909 37.9363 103.99 37.5474C105.094 37.109 106.082 36.4232 106.88 35.5429C107.605 34.6961 108.233 33.7708 108.752 32.7841C109.257 31.8176 109.601 30.7752 109.77 29.6979C109.813 29.3479 109.846 28.9647 109.869 28.5483C109.892 28.132 109.902 27.6174 109.902 27.0046V11.3686C109.92 11.2094 109.964 11.0541 110.033 10.909C109.827 9.95263 109.564 9.00952 109.244 8.08479C108.932 7.20129 108.465 6.38017 107.866 5.65949L107.668 5.5273C107.569 5.42714 107.481 5.31701 107.405 5.19867C107.328 5.08125 107.241 4.97156 107.143 4.87123L106.88 4.60811C106.791 4.47714 106.704 4.35707 106.617 4.24429C106.529 4.13151 106.442 4.0139 106.355 3.88051C105.412 2.67163 104.207 1.69372 102.83 1.02125C101.452 0.348788 99.9397 -0.000513531 98.407 5.66657e-07H63.5176C62.3263 0.195067 61.1664 0.548667 60.0689 1.05138C59.0607 1.52148 58.1034 2.09363 57.2119 2.75882C56.4772 3.66475 55.8388 4.64456 55.3068 5.68251C54.7844 6.70278 54.4298 7.80056 54.2566 8.93363C54.2652 10.1272 54.4533 11.3127 54.8144 12.4503C55.2156 13.7077 55.8508 14.8778 56.6868 15.8991C57.2023 16.5037 57.799 17.0342 58.4597 17.4756C59.0494 18.0535 59.6867 18.5808 60.3648 19.052C59.2352 19.5578 58.2102 20.2706 57.3428 21.1535C56.6164 22.0028 55.9671 22.9151 55.4026 23.8796C54.8607 24.8071 54.4725 25.8161 54.253 26.8676V46.3113L54.259 46.3137ZM55.901 27.1986C56.0797 26.2691 56.4243 25.3794 56.9184 24.572C57.419 23.7442 57.979 22.9539 58.5943 22.2074C59.2585 21.4723 60.0906 20.9085 61.0196 20.5642C61.9781 20.2395 62.969 20.0196 63.9748 19.9082H90.1184V17.5435H62.9974C61.9792 17.4082 61.0035 17.0492 60.1404 16.4921C59.2484 15.9289 58.4219 15.2679 57.6763 14.5215C57.0703 13.7481 56.6139 12.8684 56.3303 11.9277C56.0515 11.024 55.9076 10.0842 55.9034 9.13858C56.0388 8.2012 56.3255 7.29202 56.7523 6.44648C57.185 5.58138 57.7138 4.76781 58.3287 4.02117C59.0936 3.44085 59.9194 2.9456 60.7916 2.54418C61.7219 2.11826 62.7053 1.81965 63.7153 1.65648H98.3972C99.6909 1.65515 100.968 1.95064 102.129 2.52016C103.291 3.08968 104.306 3.91806 105.097 4.94158C105.574 5.5455 105.95 6.22184 106.213 6.9449C106.475 7.6647 106.694 8.3992 106.87 9.14465C106.814 9.40339 106.792 9.66839 106.805 9.93286V25.37C106.805 25.855 106.794 26.3037 106.772 26.716C106.749 27.1332 106.716 27.5151 106.674 27.8656C106.538 28.798 106.237 29.6989 105.786 30.5262C105.329 31.376 104.79 32.179 104.177 32.9236C103.508 33.6605 102.678 34.2335 101.751 34.5983C100.822 34.9387 99.8492 35.1489 98.8617 35.2228H72.6477V45.8638C72.2355 46.7932 71.9167 47.7612 71.6958 48.7536C71.469 49.7735 71.0329 50.7352 70.4152 51.5779C69.7097 52.1262 68.9076 52.5375 68.0506 52.7905C67.2179 53.033 66.276 53.263 65.2251 53.4805L64.3762 53.546C63.0912 53.5517 61.8226 53.2579 60.671 52.6879C59.5194 52.1179 58.5164 51.2873 57.7418 50.2621C57.2628 49.6542 56.8759 48.9793 56.5934 48.2588C56.3036 47.5229 56.0728 46.765 55.9034 45.9923V27.1986H55.901ZM113.441 53.9328C114.001 54.5096 114.671 54.9677 115.412 55.2801C116.111 55.5638 116.834 55.8153 117.579 56.0343C117.625 56.0347 117.67 56.0464 117.71 56.0683C117.773 56.0931 117.84 56.1042 117.908 56.101C118.059 56.2223 118.241 56.3013 118.433 56.3302C118.695 56.3561 118.958 56.367 119.221 56.363H119.75C122.294 56.3928 124.773 55.5592 126.783 53.9983L127.769 52.816C128.32 52.1027 128.773 51.3183 129.115 50.484C129.444 49.6756 129.718 48.8983 129.936 48.1521V10.4494C129.737 9.55177 129.463 8.67266 129.115 7.82164C128.768 7.00558 128.292 6.25118 127.703 5.58791L127.834 5.7201C127.658 5.50183 127.494 5.29364 127.342 5.09557C127.189 4.90045 127.024 4.71422 126.85 4.53776L126.587 4.27464C126.467 4.195 126.375 4.08014 126.323 3.94598H126.258C126.259 3.93714 126.258 3.92823 126.255 3.91985C126.252 3.91147 126.247 3.90385 126.241 3.89757C126.235 3.89129 126.227 3.8865 126.219 3.88354C126.21 3.88059 126.201 3.87955 126.193 3.88051V3.81501C125.395 2.75585 124.39 1.87134 123.237 1.21602C122.085 0.560703 120.81 0.148483 119.493 0.00484852C118.113 -0.00470642 116.74 0.194825 115.421 0.596632C114.149 0.990591 112.982 1.66387 112.004 2.5672C111.113 3.33303 110.387 4.27151 109.869 5.32598C109.447 6.26514 109.085 7.23039 108.786 8.21576L108.654 8.3467C108.603 8.45341 108.56 8.5632 108.523 8.67536V46.8388C108.611 47.0583 108.699 47.2657 108.786 47.4633C108.873 47.661 108.961 47.8465 109.048 48.0211V47.9557C109.046 47.9914 109.058 48.0266 109.081 48.0539C109.093 48.0671 109.102 48.0826 109.108 48.0995C109.114 48.1164 109.116 48.1343 109.115 48.1521C109.117 48.2084 109.128 48.2641 109.147 48.317C109.167 48.3696 109.178 48.4248 109.18 48.4807C109.35 48.9944 109.547 49.4988 109.771 49.9917C110.022 50.522 110.355 51.0097 110.757 51.4372L111.676 52.4218C112.044 52.8066 112.464 53.1384 112.924 53.4078L113.441 53.9328ZM114.853 52.5213C114.094 52.2572 113.408 51.8181 112.85 51.2395L112.001 50.3203C111.499 49.7509 111.129 49.0781 110.917 48.3498C110.727 47.6706 110.474 47.0108 110.161 46.3792V9.06945C110.467 8.1066 110.795 7.18701 111.147 6.31067C111.59 5.31159 112.265 4.43329 113.118 3.74954C113.931 3.01501 114.895 2.46597 115.942 2.14035C117.027 1.80641 118.156 1.63996 119.291 1.64679C120.419 1.77113 121.509 2.12713 122.492 2.69243C123.475 3.25773 124.332 4.02016 125.007 4.93189C125.483 5.4936 125.871 6.12505 126.156 6.80423C126.456 7.53616 126.687 8.29451 126.846 9.06945V46.3792C126.651 47.0477 126.421 47.7055 126.156 48.3498C125.867 49.0573 125.48 49.7207 125.007 50.3203L124.158 51.2395C122.434 52.5877 120.302 53.3061 118.114 53.2756H117.589C117.411 53.2982 117.23 53.2756 117.064 53.2101C116.31 52.9918 115.572 52.7622 114.851 52.5213H114.853ZM133.475 53.9983C135.477 55.5718 137.961 56.4069 140.508 56.363H141.033C141.285 56.3655 141.537 56.3545 141.788 56.3302C141.992 56.306 142.185 56.2268 142.346 56.101C142.392 56.0998 142.437 56.0887 142.478 56.0683C142.54 56.0417 142.608 56.0301 142.675 56.0343C143.419 55.8145 144.142 55.563 144.843 55.2801C145.583 54.9668 146.253 54.5088 146.814 53.9328L147.663 52.9482C148.041 52.5161 148.351 52.0286 148.582 51.5027C148.756 51.0653 148.932 50.6053 149.108 50.1227C149.195 49.9044 149.294 49.6631 149.403 49.3951C149.542 49.0753 149.707 48.7675 149.896 48.4746V37.9658L163.033 51.6931C163.257 51.9633 163.51 52.2073 163.788 52.4206C164.072 52.6405 164.346 52.8596 164.609 53.0779L164.806 53.2089C165.533 53.8531 166.313 54.4356 167.138 54.9503C168.018 55.4793 168.986 55.8461 169.996 56.0331L169.929 55.9677C171.055 56.3311 172.228 56.5304 173.411 56.5594H173.674C174.734 56.3681 175.756 56.0017 176.696 55.4753C177.571 54.9709 178.469 54.3908 179.388 53.7352C179.486 53.6059 179.625 53.5133 179.782 53.472C180.584 52.5789 181.248 51.5714 181.753 50.4828C182.186 49.5167 182.452 48.4843 182.541 47.4293V11.3686C182.552 10.1579 182.304 8.95887 181.813 7.85195C181.341 6.7959 180.722 5.81199 179.974 4.92944L179.316 4.33766C179.195 4.13411 179.064 3.93699 178.922 3.7471C178.791 3.57248 178.637 3.37484 178.463 3.15535C177.347 2.08454 176.014 1.26679 174.554 0.75791C173.146 0.293557 171.672 0.060535 170.189 0.0679089C168.938 0.0266286 167.703 0.358434 166.642 1.02107C165.681 1.65424 164.76 2.3451 163.883 3.08985C163.128 4.02479 162.457 5.02513 161.88 6.07904C161.277 7.19837 160.972 8.45341 160.993 9.72429V18.7889C158.366 16.1615 155.782 13.5231 153.242 10.8739C150.702 8.22464 148.162 5.54226 145.623 2.82673C144.21 1.64094 142.548 0.788004 140.761 0.331068C140.29 0.194154 139.806 0.105964 139.317 0.0679089C138.791 0.025466 138.177 0.00244305 137.477 0.00244305C136.146 0.198907 134.857 0.620878 133.667 1.25025C132.473 1.91312 131.442 2.83308 130.647 3.94357C130.073 4.62369 129.607 5.38813 129.267 6.21001C128.943 7.03267 128.68 7.8777 128.478 8.73842V46.5732C128.697 47.3614 128.971 48.1828 129.299 49.0373C129.638 49.9074 130.115 50.717 130.712 51.4347L131.697 52.4849C131.859 52.606 132.013 52.7377 132.158 52.879C132.291 53.0133 132.447 53.1243 132.617 53.2077L133.475 53.9983ZM168.62 52.9457C167.773 52.7823 166.961 52.4707 166.222 52.0253C165.502 51.5943 164.829 51.09 164.213 50.5204L146.806 32.3912V46.3829C146.452 47.0033 146.177 47.6652 145.985 48.3534C145.779 49.0711 145.433 49.7408 144.967 50.324L144.118 51.2432C143.56 51.8215 142.874 52.2606 142.115 52.5249C141.392 52.7675 140.658 52.9971 139.914 53.2137C139.747 53.279 139.566 53.3015 139.389 53.2792H138.864C136.676 53.3099 134.543 52.5915 132.82 51.2432L131.971 50.324C131.464 49.7418 131.064 49.0747 130.788 48.3534C130.526 47.6541 130.307 46.9973 130.131 46.3829V9.06945C130.289 8.29785 130.509 7.54032 130.788 6.80423C131.061 6.11102 131.462 5.47569 131.971 4.93189C132.631 4.00346 133.496 3.23922 134.499 2.69816C135.494 2.16982 136.572 1.81431 137.686 1.64679C138.57 1.61381 139.453 1.70236 140.313 1.90995C141.071 2.04636 141.802 2.30129 142.481 2.66541C143.225 3.06779 143.929 3.5409 144.582 4.07817C147.604 7.27472 150.582 10.4054 153.516 13.4702C156.45 16.535 159.493 19.6442 162.646 22.7979V9.7267C162.641 8.69287 162.901 7.67506 163.402 6.77026C163.88 5.88774 164.441 5.05221 165.076 4.27464C165.821 3.66265 166.598 3.08256 167.408 2.53444C168.233 1.98318 169.206 1.69679 170.197 1.71351C171.467 1.70726 172.73 1.89537 173.942 2.27132C175.177 2.67585 176.301 3.36164 177.226 4.27464C177.851 5.03922 178.38 5.87729 178.802 6.77026C179.241 7.69393 179.465 8.70438 179.46 9.7267V45.7219C179.309 47.5608 178.546 49.2959 177.291 50.6489C176.415 51.2625 175.539 51.8426 174.663 52.3891C173.782 52.9395 172.8 53.3081 171.774 53.4732C170.704 53.4358 169.645 53.2593 168.621 52.9482L168.62 52.9457ZM185.369 18.9914C185.543 19.1232 185.751 19.2768 185.992 19.4522C186.235 19.6268 186.463 19.8026 186.682 19.9773L186.813 20.0428C187.604 20.6311 188.439 21.1581 189.31 21.6192C190.204 22.0726 191.197 22.2984 192.2 22.2765H197.915V43.4979C197.911 44.926 198.009 46.3525 198.21 47.7665C198.427 49.1664 199.056 50.47 200.017 51.5111L201.001 52.5625C201.198 52.7611 201.406 52.9475 201.626 53.1204C201.825 53.2754 202.033 53.418 202.25 53.5472L202.775 54.0723C203.436 54.7604 204.23 55.3081 205.107 55.6827C205.899 56.0054 206.726 56.2366 207.57 56.3715C207.932 56.4786 208.31 56.5233 208.687 56.5036H209.278C211.924 56.528 214.491 55.5947 216.504 53.8758C217.624 52.8104 218.45 51.4737 218.901 49.9953C219.361 48.5059 219.594 46.9557 219.591 45.3969V22.2728H226.746C228.113 22.2925 229.46 21.9525 230.654 21.287C231.772 20.6613 232.799 19.8861 233.708 18.9829C234.7 17.6555 235.456 16.1668 235.941 14.5822C236.069 14.3729 236.148 14.1374 236.172 13.8934C236.192 13.6509 236.205 13.3792 236.205 13.0712V12.4152C236.213 11.1759 236.07 9.94036 235.778 8.73598C235.46 7.53437 234.888 6.41469 234.102 5.4521L234.168 5.5176C233.966 5.24107 233.747 4.97779 233.511 4.72938L232.986 4.20429C232.84 4.04092 232.708 3.86523 232.592 3.67919C231.748 2.566 230.626 1.69377 229.34 1.14959C228.168 0.640173 226.946 0.254874 225.694 5.66657e-07H190.354C189.188 0.191337 188.044 0.499699 186.939 0.920409C185.804 1.41121 184.81 2.17878 184.048 3.15291C183.165 4.08261 182.454 5.16112 181.947 6.33857C181.504 7.44275 181.218 8.60368 181.098 9.78735C180.929 12.5725 181.821 15.3183 183.594 17.4731C183.726 17.5604 183.966 17.7351 184.321 17.9982C184.397 18.0784 184.486 18.1448 184.584 18.1947L185.369 18.9914ZM204.253 52.7214C203.484 52.4078 202.782 51.951 202.184 51.3753L201.264 50.3894C200.484 49.4898 199.982 48.3832 199.819 47.2038C199.642 45.9748 199.555 44.7347 199.557 43.4931V19.1854H190.558C189.51 19.2007 188.486 18.8784 187.635 18.2662C186.781 17.6526 185.872 17.0394 184.909 16.4266C183.401 14.6308 182.627 12.332 182.741 9.98986C182.864 8.9787 183.108 7.98606 183.469 7.03342C183.883 6.0119 184.485 5.07642 185.242 4.27464C185.882 3.47811 186.705 2.84716 187.64 2.43501C188.581 2.06172 189.562 1.79726 190.563 1.64679H225.376C226.479 1.85077 227.558 2.17026 228.594 2.59995C229.698 3.03344 230.656 3.77405 231.353 4.73423C232.028 5.55899 232.51 6.52378 232.765 7.55848C233.012 8.61377 233.134 9.69434 233.129 10.7781V11.4341C233.153 11.6554 233.13 11.8791 233.064 12.0914C232.891 12.8284 232.638 13.5441 232.308 14.2257C231.981 14.904 231.597 15.5532 231.159 16.1659C230.334 16.9925 229.407 17.7102 228.4 18.3014C227.406 18.8886 226.271 19.195 225.116 19.1878H216.506V43.7538C216.509 45.1309 216.321 46.5018 215.947 47.8271C215.606 49.0901 214.911 50.2293 213.944 51.111C212.197 52.6281 209.952 53.4483 207.638 53.415H207.047C206.848 53.438 206.646 53.4157 206.456 53.3495C205.7 53.2137 204.96 53.002 204.247 52.7178L204.253 52.7214Z" fill="#E9E7EC"/>
<path fill-rule="evenodd" clip-rule="evenodd" d="M58.0485 28.9617C57.5291 28.1029 56.9492 27.2823 56.3132 26.5061C55.6232 25.7431 54.7591 25.1582 53.7945 24.8011C52.8229 24.4685 51.8189 24.2397 50.7992 24.1183H23.7013V21.6627H51.7427C52.7978 21.5219 53.8087 21.1492 54.7027 20.5713C55.6404 19.9748 56.5184 19.2893 57.3245 18.5244C57.9135 17.7062 58.3618 16.7955 58.6512 15.8298C58.9403 14.8903 59.0894 13.9134 59.0938 12.9304C58.9515 11.9566 58.6526 11.0123 58.2086 10.134C57.7609 9.23358 57.2129 8.38663 56.5751 7.60925C55.7828 7.00628 54.9268 6.4919 54.0225 6.07526C53.0581 5.63273 52.0383 5.3227 50.9908 5.15363H15.0562C13.7238 5.14831 12.4085 5.45385 11.2149 6.04603C10.0213 6.6382 8.98231 7.50065 8.18049 8.56482C7.68417 9.19666 7.28299 9.89773 6.98967 10.6457C6.69615 11.3888 6.45741 12.1524 6.27539 12.9304C6.31985 13.4761 6.35383 13.9878 6.37727 14.4656C6.39961 14.9319 6.38824 15.3992 6.3433 15.8638V29.7802C6.3433 30.2822 6.35423 30.7504 6.37727 31.1796C6.40031 31.6089 6.43303 32.0091 6.47912 32.3729C6.66205 33.3348 6.9831 34.2652 7.43228 35.1353C7.88515 36.0222 8.43285 36.8573 9.06574 37.6261C9.76006 38.3921 10.6221 38.9873 11.5844 39.3651C12.57 39.7237 13.6012 39.9421 14.6476 40.0138H41.811V42.4694H13.629C12.5734 42.6101 11.562 42.9828 10.6676 43.5608C9.74389 44.1469 8.88779 44.8334 8.11499 45.6078C6.92472 47.2303 6.28134 49.1894 6.27783 51.2018C6.4061 52.1785 6.70535 53.1251 7.16186 53.9981C7.64013 54.9026 8.18659 55.7693 8.79651 56.5908C10.4665 57.7855 12.3658 58.6216 14.3747 59.0464H50.3166C51.6577 59.0488 52.9813 58.7429 54.1853 58.1523C55.3893 57.5616 56.4414 56.7021 57.2602 55.6401C57.7548 55.0127 58.1458 54.3102 58.4184 53.5592C58.6955 52.7904 58.9227 52.0046 59.0986 51.2066V31.6938C58.9146 30.7277 58.5589 29.8023 58.0485 28.9617ZM61.5191 28.9617C62.0376 28.1021 62.618 27.2814 63.2556 26.5061C63.9451 25.7426 64.8093 25.1576 65.7743 24.8011C66.7677 24.4637 67.7948 24.2348 68.8375 24.1183H95.9294V21.6627H67.8116C66.756 21.5221 65.7446 21.1494 64.8503 20.5713C63.925 19.9885 63.0672 19.3049 62.2928 18.5328C61.6641 17.7292 61.1907 16.8155 60.897 15.8383C60.6073 14.899 60.4581 13.9219 60.4544 12.9389C60.5972 11.9652 60.8962 11.021 61.3396 10.1425C61.7873 9.24206 62.3352 8.39511 62.9731 7.61773C63.7652 7.01449 64.6212 6.50009 65.5257 6.08374C66.4901 5.6412 67.5099 5.33117 68.5574 5.16211H104.499C105.841 5.16071 107.164 5.46759 108.368 6.05905C109.572 6.65051 110.624 7.51076 111.443 8.57333C111.937 9.20112 112.327 9.90357 112.6 10.6542C112.872 11.4017 113.099 12.1646 113.281 12.9389C113.228 13.2082 113.205 13.4829 113.213 13.7574V29.7887C113.213 30.2908 113.201 30.7588 113.179 31.1881C113.158 31.6174 113.121 32.0176 113.076 32.3814C112.936 33.3492 112.625 34.2845 112.158 35.1438C111.685 36.0266 111.126 36.8609 110.49 37.6346C109.795 38.4001 108.933 38.9951 107.971 39.3735C107.007 39.7274 105.999 39.9458 104.976 40.0223H77.8148V51.0732C77.3874 52.0386 77.0568 53.044 76.8277 54.0746C76.5927 55.1337 76.1405 56.1325 75.4998 57.0079C74.7692 57.5786 73.9378 58.0068 73.049 58.2703C72.1864 58.5209 71.2106 58.7598 70.1217 58.987L69.2377 59.0549C67.9054 59.0598 66.5905 58.7537 65.3974 58.1608C64.2044 57.568 63.1662 56.7048 62.3655 55.6401C61.8687 55.0086 61.4675 54.3074 61.1747 53.5592C60.8742 52.7952 60.635 52.0085 60.4592 51.2066V31.6938C60.6443 30.7272 61.0016 29.8018 61.5142 28.9617H61.5191ZM119.517 57.989C118.729 57.7144 118.017 57.2573 117.439 56.6551L116.555 55.7007C116.035 55.1091 115.652 54.4102 115.433 53.6537C115.236 52.9486 114.973 52.2633 114.649 51.6068V12.8649C114.966 11.8649 115.306 10.9097 115.67 9.9994C116.128 8.96235 116.828 8.05006 117.711 7.33884C118.554 6.57651 119.553 6.00634 120.638 5.66778C121.763 5.32149 122.934 5.14892 124.11 5.15604C125.281 5.2778 126.414 5.64443 127.434 6.2321C128.454 6.81977 129.339 7.61537 130.032 8.56726C130.526 9.14951 130.928 9.80382 131.224 10.5075C131.535 11.268 131.774 12.056 131.938 12.8613V51.6092C131.736 52.3037 131.498 52.987 131.224 53.6562C130.924 54.391 130.523 55.08 130.032 55.7031L129.148 56.6575C127.363 58.0571 125.152 58.8034 122.884 58.7724H122.34C122.155 58.7954 121.968 58.7721 121.795 58.7045C121.021 58.4805 120.26 58.2428 119.512 57.9914L119.517 57.989ZM173.19 58.4328C172.312 58.2628 171.471 57.9393 170.705 57.4773C169.961 57.0267 169.266 56.5009 168.629 55.9081L150.585 37.0865V51.6165C150.219 52.2613 149.934 52.9488 149.736 53.6634C149.522 54.4085 149.164 55.104 148.681 55.7104L147.796 56.6648C147.218 57.2664 146.507 57.7235 145.72 57.9987C144.97 58.2493 144.21 58.4882 143.439 58.7154C143.266 58.783 143.079 58.8063 142.894 58.7833H142.35C140.082 58.8148 137.872 58.0683 136.088 56.6684L135.202 55.7141C134.677 55.1092 134.262 54.4162 133.978 53.6671C133.704 52.9395 133.477 52.2572 133.296 51.6201V12.8649C133.459 12.0632 133.687 11.276 133.978 10.5111C134.26 9.79275 134.675 9.13435 135.202 8.57089C135.886 7.60687 136.783 6.81314 137.823 6.25108C138.854 5.70208 139.97 5.33299 141.125 5.1597C142.04 5.13676 142.955 5.22839 143.847 5.43252C144.633 5.57465 145.39 5.83942 146.093 6.21711C146.866 6.63472 147.597 7.12613 148.276 7.68445C151.407 11.0047 154.493 14.2562 157.533 17.439C160.574 20.6218 163.727 23.8507 166.992 27.1257V13.5476C166.987 12.4743 167.257 11.4174 167.774 10.4772C168.27 9.56006 168.851 8.69197 169.511 7.88451C170.282 7.24908 171.088 6.64681 171.928 6.07767C172.782 5.50587 173.792 5.20961 174.82 5.22879C176.135 5.22202 177.444 5.41794 178.7 5.80966C179.98 6.23042 181.146 6.9423 182.104 7.88936C182.752 8.68404 183.301 9.55467 183.738 10.482C184.192 11.4414 184.425 12.4909 184.418 13.5525V50.9362C184.263 52.8449 183.472 54.6464 182.172 56.0524C181.264 56.6886 180.356 57.2913 179.449 57.8604C178.535 58.4313 177.517 58.8139 176.453 58.9858C175.344 58.9605 174.244 58.7768 173.186 58.4401L173.19 58.4328ZM208.077 58.1903C207.28 57.8639 206.553 57.3895 205.933 56.7921L204.98 55.7686C204.171 54.8334 203.651 53.684 203.482 52.4593C203.298 51.183 203.207 49.895 203.209 48.6055V23.3701H193.884C192.797 23.3862 191.734 23.0515 190.852 22.4158C189.963 21.7795 189.021 21.1429 188.027 20.5058C186.464 18.6391 185.662 16.252 185.781 13.8205C185.906 12.7706 186.157 11.7397 186.529 10.75C186.959 9.68917 187.583 8.71748 188.368 7.88451C189.031 7.0581 189.883 6.40311 190.852 5.9746C191.828 5.58602 192.845 5.31134 193.884 5.15604H229.962C231.105 5.36741 232.224 5.6991 233.298 6.14558C234.442 6.59705 235.434 7.36616 236.156 8.36231C236.856 9.21934 237.355 10.2214 237.62 11.2957C237.875 12.3916 238.001 13.5137 237.994 14.639V15.3205C238.011 15.5503 237.988 15.7812 237.926 16.0032C237.747 16.7687 237.485 17.5121 237.143 18.22C236.804 18.9237 236.406 19.5972 235.952 20.233C235.098 21.0909 234.137 21.8359 233.093 22.4497C232.063 23.0595 230.887 23.3777 229.69 23.3701H220.772V48.8844C220.775 50.3142 220.58 51.7376 220.194 53.1141C219.839 54.4252 219.119 55.6083 218.118 56.5253C216.308 58.0985 213.981 58.9487 211.583 58.913H210.976C210.769 58.9375 210.559 58.9138 210.363 58.8439C209.579 58.7064 208.812 58.4895 208.072 58.1964L208.077 58.1903Z" fill="#E9E7EC"/>
</svg>
