<svg width="50" height="50" viewBox="0 0 50 50" fill="none" xmlns="http://www.w3.org/2000/svg">
<g clip-path="url(#clip0)">
<path d="M10.2979 11.6792L2.13335 19.8437C0.807572 21.233 0.0678711 23.0796 0.0678711 25C0.0678711 26.9204 0.807572 28.767 2.13335 30.1563L10.2979 38.3208C10.5862 38.6193 10.931 38.8574 11.3123 39.0212C11.6936 39.1849 12.1036 39.2711 12.5186 39.2747C12.9335 39.2783 13.345 39.1993 13.729 39.0422C14.1131 38.885 14.462 38.653 14.7554 38.3596C15.0488 38.0662 15.2809 37.7172 15.438 37.3332C15.5951 36.9491 15.6742 36.5376 15.6706 36.1227C15.667 35.7078 15.5808 35.2977 15.417 34.9164C15.2532 34.5352 15.0152 34.1904 14.7167 33.9021L8.9271 28.1083L46.9479 28.0604C47.7767 28.0604 48.5716 27.7312 49.1576 27.1451C49.7437 26.5591 50.0729 25.7642 50.0729 24.9354C50.0729 24.1066 49.7437 23.3118 49.1576 22.7257C48.5716 22.1397 47.7767 21.8104 46.9479 21.8104L8.95835 21.8583L14.7167 16.0979C15.2859 15.5085 15.6009 14.7192 15.5938 13.8998C15.5867 13.0804 15.258 12.2966 14.6786 11.7172C14.0992 11.1378 13.3154 10.8092 12.4961 10.8021C11.6767 10.7949 10.8873 11.1099 10.2979 11.6792V11.6792Z" fill="white"/>
</g>
<defs>
<clipPath id="clip0">
<rect width="50" height="50" fill="white"/>
</clipPath>
</defs>
</svg>
