<svg width="103" height="103" viewBox="0 0 103 103" fill="none" xmlns="http://www.w3.org/2000/svg">
<path d="M21.0718 3.17334L4.25446 32.7085C1.52363 37.7342 0 44.4142 0 51.3611C0 58.308 1.52363 64.9879 4.25446 70.0137L21.0718 99.5488C21.6656 100.629 22.3759 101.49 23.1612 102.082C23.9465 102.675 24.7911 102.987 25.6458 103C26.5005 103.013 27.3481 102.727 28.1392 102.158C28.9302 101.59 29.6489 100.75 30.2533 99.689C30.8577 98.6275 31.3356 97.3654 31.6593 95.9761C31.9829 94.5868 32.1458 93.0982 32.1384 91.5972C32.1309 90.0961 31.9534 88.6128 31.616 87.2336C31.2787 85.8543 30.7883 84.6069 30.1735 83.5641L18.2482 62.6054L96.5631 62.4321C98.2703 62.4321 99.9075 61.241 101.115 59.121C102.322 57.001 103 54.1256 103 51.1275C103 48.1293 102.322 45.2539 101.115 43.1339C99.9075 41.0139 98.2703 39.8229 96.5631 39.8229L18.3125 39.9962L30.1735 19.158C31.346 17.026 31.9948 14.1704 31.9802 11.2064C31.9655 8.24234 31.2885 5.40701 30.0951 3.31104C28.9016 1.21508 27.2872 0.026184 25.5995 0.000427344C23.9118 -0.0253293 22.2858 1.11411 21.0718 3.17334V3.17334Z" fill="white"/>
</svg>
