<svg width="51" height="51" viewBox="0 0 51 51" fill="none" xmlns="http://www.w3.org/2000/svg">
<path fill-rule="evenodd" clip-rule="evenodd" d="M14.875 34C14.875 32.8312 15.8312 31.875 17 31.875C18.1687 31.875 19.125 32.8312 19.125 34C19.125 35.1688 18.1687 36.125 17 36.125C15.8312 36.125 14.875 35.1688 14.875 34ZM25.5 31.875H34C35.1688 31.875 36.125 32.8312 36.125 34C36.125 35.1688 35.1688 36.125 34 36.125H25.5C24.3312 36.125 23.375 35.1688 23.375 34C23.375 32.8312 24.3312 31.875 25.5 31.875ZM38.25 42.5H12.75C11.5791 42.5 10.625 41.5459 10.625 40.375V27.625H40.375V40.375C40.375 41.5459 39.4209 42.5 38.25 42.5ZM12.75 12.75H14.875V14.875C14.875 16.0437 15.8313 17 17 17C18.1687 17 19.125 16.0437 19.125 14.875V12.75H31.875V14.875C31.875 16.0437 32.8312 17 34 17C35.1688 17 36.125 16.0437 36.125 14.875V12.75H38.25C39.4209 12.75 40.375 13.7041 40.375 14.875V23.375H10.625V14.875C10.625 13.7041 11.5791 12.75 12.75 12.75ZM38.25 8.5H36.125V6.375C36.125 5.20625 35.1688 4.25 34 4.25C32.8312 4.25 31.875 5.20625 31.875 6.375V8.5H19.125V6.375C19.125 5.20625 18.1687 4.25 17 4.25C15.8313 4.25 14.875 5.20625 14.875 6.375V8.5H12.75C9.23525 8.5 6.375 11.3602 6.375 14.875V40.375C6.375 43.8898 9.23525 46.75 12.75 46.75H38.25C41.7648 46.75 44.625 43.8898 44.625 40.375V14.875C44.625 11.3602 41.7648 8.5 38.25 8.5Z" fill="#1B262C"/>
<mask id="mask0" mask-type="alpha" maskUnits="userSpaceOnUse" x="6" y="4" width="39" height="43">
<path fill-rule="evenodd" clip-rule="evenodd" d="M14.875 34C14.875 32.8312 15.8312 31.875 17 31.875C18.1687 31.875 19.125 32.8312 19.125 34C19.125 35.1688 18.1687 36.125 17 36.125C15.8312 36.125 14.875 35.1688 14.875 34ZM25.5 31.875H34C35.1688 31.875 36.125 32.8312 36.125 34C36.125 35.1688 35.1688 36.125 34 36.125H25.5C24.3312 36.125 23.375 35.1688 23.375 34C23.375 32.8312 24.3312 31.875 25.5 31.875ZM38.25 42.5H12.75C11.5791 42.5 10.625 41.5459 10.625 40.375V27.625H40.375V40.375C40.375 41.5459 39.4209 42.5 38.25 42.5ZM12.75 12.75H14.875V14.875C14.875 16.0437 15.8313 17 17 17C18.1687 17 19.125 16.0437 19.125 14.875V12.75H31.875V14.875C31.875 16.0437 32.8312 17 34 17C35.1688 17 36.125 16.0437 36.125 14.875V12.75H38.25C39.4209 12.75 40.375 13.7041 40.375 14.875V23.375H10.625V14.875C10.625 13.7041 11.5791 12.75 12.75 12.75ZM38.25 8.5H36.125V6.375C36.125 5.20625 35.1688 4.25 34 4.25C32.8312 4.25 31.875 5.20625 31.875 6.375V8.5H19.125V6.375C19.125 5.20625 18.1687 4.25 17 4.25C15.8313 4.25 14.875 5.20625 14.875 6.375V8.5H12.75C9.23525 8.5 6.375 11.3602 6.375 14.875V40.375C6.375 43.8898 9.23525 46.75 12.75 46.75H38.25C41.7648 46.75 44.625 43.8898 44.625 40.375V14.875C44.625 11.3602 41.7648 8.5 38.25 8.5Z" fill="white"/>
</mask>
<g mask="url(#mask0)">
<rect width="51" height="51" fill="#E9E7EC"/>
</g>
</svg>
