<svg width="51" height="34" viewBox="0 0 51 34" fill="none" xmlns="http://www.w3.org/2000/svg">
<path d="M46.75 34H4.25C1.90276 34 0 32.0972 0 29.75V4.25C0 1.90276 1.90276 0 4.25 0H46.75C49.0972 0 51 1.90276 51 4.25V29.75C51 32.0972 49.0972 34 46.75 34ZM11.3333 10.2708V6.72917C11.3333 6.1424 10.8576 5.66667 10.2708 5.66667H6.72917C6.1424 5.66667 5.66667 6.1424 5.66667 6.72917V10.2708C5.66667 10.8576 6.1424 11.3333 6.72917 11.3333H10.2708C10.8576 11.3333 11.3333 10.8576 11.3333 10.2708ZM19.8333 10.2708V6.72917C19.8333 6.1424 19.3576 5.66667 18.7708 5.66667H15.2292C14.6424 5.66667 14.1667 6.1424 14.1667 6.72917V10.2708C14.1667 10.8576 14.6424 11.3333 15.2292 11.3333H18.7708C19.3576 11.3333 19.8333 10.8576 19.8333 10.2708ZM28.3333 10.2708V6.72917C28.3333 6.1424 27.8576 5.66667 27.2708 5.66667H23.7292C23.1424 5.66667 22.6667 6.1424 22.6667 6.72917V10.2708C22.6667 10.8576 23.1424 11.3333 23.7292 11.3333H27.2708C27.8576 11.3333 28.3333 10.8576 28.3333 10.2708ZM36.8333 10.2708V6.72917C36.8333 6.1424 36.3576 5.66667 35.7708 5.66667H32.2292C31.6424 5.66667 31.1667 6.1424 31.1667 6.72917V10.2708C31.1667 10.8576 31.6424 11.3333 32.2292 11.3333H35.7708C36.3576 11.3333 36.8333 10.8576 36.8333 10.2708ZM45.3333 10.2708V6.72917C45.3333 6.1424 44.8576 5.66667 44.2708 5.66667H40.7292C40.1424 5.66667 39.6667 6.1424 39.6667 6.72917V10.2708C39.6667 10.8576 40.1424 11.3333 40.7292 11.3333H44.2708C44.8576 11.3333 45.3333 10.8576 45.3333 10.2708ZM15.5833 18.7708V15.2292C15.5833 14.6424 15.1076 14.1667 14.5208 14.1667H10.9792C10.3924 14.1667 9.91667 14.6424 9.91667 15.2292V18.7708C9.91667 19.3576 10.3924 19.8333 10.9792 19.8333H14.5208C15.1076 19.8333 15.5833 19.3576 15.5833 18.7708ZM24.0833 18.7708V15.2292C24.0833 14.6424 23.6076 14.1667 23.0208 14.1667H19.4792C18.8924 14.1667 18.4167 14.6424 18.4167 15.2292V18.7708C18.4167 19.3576 18.8924 19.8333 19.4792 19.8333H23.0208C23.6076 19.8333 24.0833 19.3576 24.0833 18.7708ZM32.5833 18.7708V15.2292C32.5833 14.6424 32.1076 14.1667 31.5208 14.1667H27.9792C27.3924 14.1667 26.9167 14.6424 26.9167 15.2292V18.7708C26.9167 19.3576 27.3924 19.8333 27.9792 19.8333H31.5208C32.1076 19.8333 32.5833 19.3576 32.5833 18.7708ZM41.0833 18.7708V15.2292C41.0833 14.6424 40.6076 14.1667 40.0208 14.1667H36.4792C35.8924 14.1667 35.4167 14.6424 35.4167 15.2292V18.7708C35.4167 19.3576 35.8924 19.8333 36.4792 19.8333H40.0208C40.6076 19.8333 41.0833 19.3576 41.0833 18.7708ZM11.3333 27.2708V23.7292C11.3333 23.1424 10.8576 22.6667 10.2708 22.6667H6.72917C6.1424 22.6667 5.66667 23.1424 5.66667 23.7292V27.2708C5.66667 27.8576 6.1424 28.3333 6.72917 28.3333H10.2708C10.8576 28.3333 11.3333 27.8576 11.3333 27.2708ZM36.8333 27.2708V23.7292C36.8333 23.1424 36.3576 22.6667 35.7708 22.6667H15.2292C14.6424 22.6667 14.1667 23.1424 14.1667 23.7292V27.2708C14.1667 27.8576 14.6424 28.3333 15.2292 28.3333H35.7708C36.3576 28.3333 36.8333 27.8576 36.8333 27.2708ZM45.3333 27.2708V23.7292C45.3333 23.1424 44.8576 22.6667 44.2708 22.6667H40.7292C40.1424 22.6667 39.6667 23.1424 39.6667 23.7292V27.2708C39.6667 27.8576 40.1424 28.3333 40.7292 28.3333H44.2708C44.8576 28.3333 45.3333 27.8576 45.3333 27.2708Z" fill="#E9E7EC"/>
</svg>
