<svg width="69" height="67" viewBox="0 0 69 67" fill="none" xmlns="http://www.w3.org/2000/svg">
<path d="M9.22754 50.2302H59.1972V3.35785H9.22754V50.2302Z" fill="white"/>
<path d="M11.1719 5.1228H33.5721C33.5721 5.1228 32.3228 6.02937 32.05 7.18058C31.7772 8.33178 31.8346 9.15201 32.0356 9.69883C32.0356 9.69883 32.0356 9.97224 31.8777 10.1737C31.7197 10.3752 31.7341 9.75639 31.0018 9.79956C30.2695 9.84273 29.25 9.61249 27.8859 12.0732C27.8859 12.0732 27.4407 13.21 27.3689 14.1885C27.2971 15.167 27.211 16.5053 27.3402 16.8507C27.4694 17.196 25.9474 17.1097 25.9474 17.1097C25.9474 17.1097 25.5597 17.2104 25.5453 17.3687C25.531 17.527 25.5453 18.3616 25.5597 18.8365C25.574 19.3114 25.4592 19.5848 25.4161 20.0309C25.373 20.477 25.0858 20.8799 25.1289 21.3835C25.172 21.8872 25.9617 21.916 26.4212 21.9591C26.8807 22.0023 26.8376 22.103 26.5792 22.175C26.3207 22.2469 25.5597 22.2613 25.5884 23.1823C25.6171 24.1033 25.9043 26.2905 25.9761 26.8805C26.0479 27.4705 25.531 26.9381 25.5884 27.1108C25.6458 27.2835 25.3874 27.01 25.2294 27.672C25.0715 28.3339 25.2725 28.2188 25.3443 28.3051C25.4161 28.3915 25.5022 28.3915 25.5022 28.3915L25.2869 28.6937L25.2151 29.039L25.3299 29.2837L25.4448 29.3844C25.4448 29.3844 25.1576 29.701 25.4592 30.0463C25.7607 30.3917 25.6171 30.2334 25.5884 30.5644C25.5597 30.8954 24.9566 33.356 25.1145 34.4353C25.2725 35.5146 24.7412 35.8455 24.5115 36.3204C24.2817 36.7953 22.9463 38.8818 23.0038 39.3711C23.0612 39.8603 22.8745 40.3784 22.7309 40.6518C22.5874 40.9252 21.9556 41.5728 21.9843 42.2491C22.013 42.9254 22.0561 43.0261 22.372 43.314C22.372 43.314 22.0991 44.2493 21.9986 44.6378C21.8981 45.0264 21.5104 46.5517 21.4386 46.8251C21.3668 47.0985 21.2376 47.6166 21.2807 47.89L21.2376 48.0051H11.1719" fill="#211E2B"/>
<path d="M11.1719 5.12258H33.5721C33.5721 5.12258 32.3228 6.02915 32.05 7.18036C31.7772 8.33156 31.8346 9.15179 32.0356 9.69861C32.0356 9.69861 32.0356 9.97202 31.8777 10.1735C31.7197 10.3749 31.7341 9.75617 31.0018 9.79934C30.2695 9.84251 29.25 9.61227 27.8859 12.073C27.8859 12.073 27.4407 13.2098 27.3689 14.1883C27.2971 15.1668 27.211 16.5051 27.3402 16.8505C27.4694 17.1958 25.9474 17.1095 25.9474 17.1095C25.9474 17.1095 25.5597 17.2102 25.5453 17.3685C25.531 17.5268 25.5453 18.3614 25.5597 18.8363C25.574 19.3112 25.4592 19.5846 25.4161 20.0307C25.373 20.4767 25.0858 20.8797 25.1289 21.3833C25.172 21.887 25.9617 21.9158 26.4212 21.9589C26.8807 22.0021 26.8376 22.1028 26.5792 22.1748C26.3207 22.2467 25.5597 22.2611 25.5884 23.1821C25.6171 24.103 25.9043 26.2903 25.9761 26.8803C26.0479 27.4703 25.531 26.9379 25.5884 27.1106C25.6458 27.2832 25.3874 27.0098 25.2294 27.6718C25.0715 28.3337 25.2725 28.2186 25.3443 28.3049C25.4161 28.3913 25.5022 28.3913 25.5022 28.3913L25.2869 28.6935L25.2151 29.0388L25.3299 29.2834L25.4448 29.3842C25.4448 29.3842 25.1576 29.7008 25.4592 30.0461C25.7607 30.3915 25.6171 30.2332 25.5884 30.5642C25.5597 30.8951 24.9566 33.3558 25.1146 34.4351C25.2725 35.5143 24.7412 35.8453 24.5115 36.3202C24.2817 36.795 22.9463 38.8816 23.0038 39.3709C23.0612 39.8601 22.8745 40.3782 22.7309 40.6516C22.5874 40.925 21.9556 41.5725 21.9843 42.2489C22.013 42.9252 22.0561 43.0259 22.372 43.3137C22.372 43.3137 22.0991 44.2491 21.9986 44.6376C21.8981 45.0261 21.5104 46.5515 21.4386 46.8249C21.3668 47.0983 21.2376 47.6164 21.2807 47.8898L21.2376 48.0049H11.1719V5.12258Z" stroke="#1D2C49" stroke-miterlimit="10"/>
<path d="M24.7114 48.0052H36.7012C36.7012 48.0052 36.8017 46.5806 37.132 45.933C37.4622 45.2855 37.3904 44.494 37.3617 43.976C37.333 43.4579 37.4048 42.5514 36.9884 42.3211L36.9166 41.688C36.9166 41.688 36.5002 40.7382 36.615 40.4936C36.5863 40.2202 36.5002 37.9034 36.5002 37.9034C36.5002 37.9034 36.6294 37.4717 36.8735 37.299C36.9453 37.0831 37.0027 35.8312 36.7443 35.5722C36.5145 35.3132 36.3422 35.3276 35.8253 35.27C35.3084 35.2124 35.5955 35.8024 33.815 33.0396C33.5135 32.5215 33.1976 32.0322 33.054 31.8452C32.9104 31.6581 32.695 31.6581 32.3648 31.6293C32.0345 31.6005 31.9914 31.5862 31.7042 31.0537L31.4171 30.5213C31.4171 30.5213 31.3435 30.3774 31.05 31.284C30.7565 32.1905 30.455 31.284 29.8806 33.5432C29.5217 34.3059 29.4929 34.3922 29.4355 35.4139C29.2919 35.9319 28.9904 36.0615 28.6745 36.2629C28.3586 36.4644 28.3155 37.0256 28.2006 37.1695C28.0857 37.3134 27.6263 37.3134 27.3821 38.1768C27.138 39.0402 27.095 38.5365 27.3391 39.3424C27.3391 39.3424 26.9801 40.7238 26.7647 41.0404C26.5493 41.357 26.2047 42.2348 26.1042 42.6377C26.0037 43.0406 25.5585 43.6162 25.2283 43.6738C24.898 43.7313 24.5247 44.9401 24.4816 45.2711C24.4385 45.602 24.3093 47.372 24.4816 47.631C24.5821 47.8901 24.7114 48.0052 24.7114 48.0052Z" fill="#211E2B"/>
<path d="M24.7114 48.0049H36.7012C36.7012 48.0049 36.8017 46.5803 37.132 45.9327C37.4622 45.2852 37.3904 44.4937 37.3617 43.9757C37.333 43.4576 37.4048 42.5511 36.9884 42.3208L36.9166 41.6877C36.9166 41.6877 36.5002 40.7379 36.615 40.4933C36.5863 40.2199 36.5002 37.9031 36.5002 37.9031C36.5002 37.9031 36.6294 37.4714 36.8735 37.2987C36.9453 37.0828 37.0027 35.8309 36.7443 35.5719C36.5145 35.3129 36.3422 35.3273 35.8253 35.2697C35.3084 35.2121 35.5956 35.8021 33.815 33.0392C33.5135 32.5212 33.1976 32.0319 33.054 31.8449C32.9104 31.6578 32.695 31.6578 32.3648 31.629C32.0345 31.6002 31.9914 31.5859 31.7042 31.0534L31.4171 30.521C31.4171 30.521 31.3435 30.3771 31.05 31.2837C30.7565 32.1902 30.455 31.2837 29.8806 33.5429C29.5217 34.3056 29.4929 34.3919 29.4355 35.4136C29.2919 35.9316 28.9904 36.0612 28.6745 36.2626C28.3586 36.4641 28.3155 37.0253 28.2006 37.1692C28.0857 37.3131 27.6263 37.3131 27.3822 38.1765C27.138 39.0399 27.095 38.5362 27.3391 39.3421C27.3391 39.3421 26.9801 40.7235 26.7647 41.0401C26.5493 41.3567 26.2047 42.2345 26.1042 42.6374C26.0037 43.0403 25.5585 43.6159 25.2283 43.6735C24.898 43.731 24.5247 44.9398 24.4816 45.2708C24.4385 45.6017 24.3093 47.3717 24.4816 47.6307C24.5821 47.8898 24.7114 48.0049 24.7114 48.0049Z" stroke="#211E2B" stroke-miterlimit="10"/>
<path d="M36.7593 5.1228H57.3022V48.0051H43.7306C43.7306 48.0051 43.6158 47.9188 43.5152 47.6454C43.4147 47.3719 42.2157 46.8971 41.8568 46.8035C41.4978 46.71 40.787 45.5372 40.5429 45.2854C40.385 45.0551 40.3706 44.8753 40.3706 44.8753L40.2342 42.5441C40.2342 42.5441 40.2127 42.3714 40.3203 42.2491C40.428 42.1268 40.6219 41.8174 40.6003 41.5656C40.5788 41.3137 40.4855 40.292 40.428 40.1625C40.3706 40.033 40.3921 39.8172 40.385 39.7021C40.3778 39.5869 40.5214 39.2488 40.5573 39.1265C40.5932 39.0041 40.9234 36.4571 40.8947 36.2916C40.866 36.1261 40.8804 34.8238 40.665 34.6871C40.4496 34.5504 40.6219 33.946 40.5501 33.8453C40.4783 33.7446 40.2198 33.8813 40.1265 33.5431C40.0332 33.205 39.0496 30.8882 39.0496 30.8882L38.3962 29.5355C38.3962 29.5355 36.6301 26.9957 36.4219 26.8014C36.2136 26.6071 36.1634 25.3912 36.3501 25.0818C36.5367 24.7724 36.6301 25.1321 36.6516 25.1321C36.6731 25.1321 37.1542 25.4415 37.3624 25.2257C37.5706 25.0098 38.1162 24.1608 38.1234 23.837C38.1306 23.5133 38.2814 20.3043 38.1808 20.1532C38.1449 20.0021 38.0588 19.4625 37.4844 19.261C36.9101 19.0596 37.4988 18.8437 37.4844 18.5415C37.4701 18.2393 37.3839 18.0235 37.5921 18.1674C37.8003 18.3113 40.1552 19.6208 40.4639 19.6639C40.7727 19.7071 40.8301 19.7143 41.0455 19.7143C41.2609 19.7143 41.5121 19.9805 41.6055 19.9445C41.706 19.9445 42.065 19.9589 42.8404 19.3114C43.6158 18.6638 43.745 18.7358 43.9317 18.0738C44.1183 17.4119 44.0609 16.4693 44.4701 16.3686C44.8794 16.2679 45.2312 16.6348 44.8076 15.2822C44.6065 13.9799 44.6568 13.9223 44.8435 13.9079C45.0086 13.8216 44.9583 13.8432 45.3317 13.4259C45.705 13.0085 45.7122 12.987 45.7337 12.9438C45.7553 12.9006 45.7553 12.7567 45.7553 12.7567C45.7553 12.7567 45.8701 12.6848 45.906 12.656C45.9419 12.6272 46.1214 12.5696 46.1573 12.5696C46.1932 12.5696 46.0999 12.4689 46.2722 12.4617C46.9183 12.4617 50.142 12.4833 50.142 12.4833V12.1164C50.142 12.1164 50.1491 11.994 50.2281 12.0012C50.3071 12.0084 50.3717 12.0156 50.4004 12.0516C50.4291 12.0876 51.2045 12.0732 51.2045 12.0732C51.2045 12.0732 51.3409 11.9509 51.5851 11.9509C51.8292 11.9509 53.983 11.9581 53.983 11.9581C53.983 11.9581 54.0333 12.1595 54.141 12.1595C54.2487 12.1595 54.4282 12.1883 54.421 12.0732C54.7799 12.0732 55.7133 12.066 55.7133 12.066C55.7133 12.066 55.7635 12.066 55.7564 11.7566C55.7635 11.4904 55.7707 11.5336 54.8589 11.5336C54.5287 11.5336 54.4641 11.5264 54.4641 11.5264C54.4641 11.5264 54.5143 11.4112 54.3061 11.4112C54.0979 11.4112 53.9974 11.5192 53.9974 11.5839C53.9974 11.6487 53.904 11.6415 53.904 11.6415L51.463 11.6199C51.463 11.6199 51.3409 11.6055 51.384 11.2458C51.4271 10.886 51.2835 10.7421 51.1686 10.8213C51.0538 10.9004 50.9676 10.9364 50.9533 10.958C50.9389 10.9795 50.824 10.8428 50.8097 10.7205C50.7953 10.5982 50.7881 9.43262 50.7881 9.41103C50.7881 9.38945 50.7235 9.21677 50.6445 9.26713C50.5656 9.3175 50.4291 9.24555 50.4076 9.33189C50.3861 9.41823 50.4004 11.0155 50.4004 11.0155C50.4004 11.0155 50.2712 11.1163 50.1994 11.0011C50.1276 10.886 50.0558 10.9508 50.0702 10.8141C50.0845 10.6774 49.984 10.5766 49.984 10.5766H40.708C40.708 10.5766 40.6793 10.1305 40.6075 10.1593C40.5357 10.1881 40.0475 10.2025 40.0475 10.2025L40.0332 9.46859C40.0332 9.46859 39.9901 9.25274 39.8321 9.38225C39.6885 9.39664 39.7029 10.0298 39.6885 10.1018C39.6742 10.1737 39.5593 10.1737 39.5593 10.1737V10.4327L39.0424 10.4903C39.0424 10.4903 38.3388 10.6198 38.2383 10.6917C38.1378 10.7637 37.7644 10.7925 37.7644 10.7925L37.5921 10.8213C37.5921 10.8213 37.4772 10.5047 37.4772 10.4615C37.4772 10.4183 37.4629 10.1161 37.4629 10.1161C37.4629 10.1161 37.4916 10.2313 37.4342 10.0298C37.3767 9.82834 37.4054 9.65566 37.4054 9.65566C37.4054 9.65566 38.3101 9.32469 38.468 9.03689C38.626 8.74909 38.626 7.65545 38.4824 7.20936C38.3388 6.76327 38.2526 6.63376 38.2526 6.51864C38.2526 6.40352 38.2096 6.02937 38.2096 6.02937C38.2096 6.02937 37.6496 5.74157 37.3767 5.65523C37.1039 5.56889 36.7019 5.2667 36.7019 5.2667" fill="#211E2B"/>
<path d="M19.472 60.7545H11.8042V55.5165H19.472C19.472 55.5165 19.4145 54.0056 17.9643 53.5595C17.6627 53.4875 17.074 53.4875 16.7007 53.4875H11.2299C11.2299 53.4875 9.33445 53.6458 9.30573 55.5741C9.27701 57.5024 9.30573 60.7545 9.30573 60.7545C9.30573 60.7545 9.09035 62.913 12.3355 62.913H17.3325C17.3325 62.913 18.7971 62.8555 19.4002 61.4308C19.515 61.0423 19.472 60.7545 19.472 60.7545Z" fill="white"/>
<path d="M23.3191 62.9136H29.6178C29.6178 62.9136 31.743 62.7602 31.7623 60.7838C31.8341 58.2944 31.7479 57.0424 28.5265 57.1576C24.7981 57.1576 24.1425 57.1576 24.1425 57.1576H23.6063V55.4501H31.6093C31.6093 55.4501 31.4944 53.4832 29.4074 53.4881C27.3204 53.4931 23.3191 53.4881 23.3191 53.4881C23.3191 53.4881 21.2707 53.5506 21.2707 55.4501V57.3496C21.2707 57.3496 21.0598 59.2108 24.1039 59.2297C27.1481 59.2491 29.4841 59.2108 29.4841 59.2108V60.8607L21.2676 60.8225C21.2676 60.8225 21.4237 62.0502 22.2278 62.4918C22.5343 62.6833 23.1468 62.9136 23.1468 62.9136" fill="white"/>
<path d="M33.4131 57.2869H34.9208V55.7327H33.4131V57.2869Z" fill="white"/>
<path d="M33.4131 60.5962H34.9208V58.9557H33.4131V60.5962Z" fill="white"/>
<path d="M46.9828 55.373H38.4966V61.0427H44.9582L44.9438 59.0424L41.7705 59.028C41.7705 59.028 40.751 58.8554 40.3489 58.1071C40.0761 57.4164 39.8751 57.4308 40.4638 57.4308C41.0525 57.4308 46.9828 57.4739 46.9828 57.4739V60.9419C46.9828 60.9419 47.0259 62.899 44.872 62.9134C42.7182 62.9277 38.8556 62.9134 38.8556 62.9134L38.1951 62.9197C38.1951 62.9197 36.8166 62.6831 36.4863 61.3448V55.373C36.4863 55.373 36.6012 53.5167 38.4679 53.4879C40.3346 53.4591 45.1592 53.4879 45.1592 53.4879C45.1592 53.4879 46.0782 53.675 46.4803 54.1642C46.7674 54.6823 46.9833 54.9413 46.9828 55.0996C46.9828 55.2579 46.9828 55.373 46.9828 55.373Z" fill="white"/>
<path d="M51.1574 53.4752H56.7287C56.7287 53.4752 58.9876 53.3583 59.0069 55.6414C59.0262 57.9249 59.0069 60.3806 59.0069 60.3806C59.0069 60.3806 59.3322 62.9263 56.1925 62.9196C53.0528 62.9133 51.6169 62.9196 51.6169 62.9196C51.6169 62.9196 48.8025 63.2011 48.8214 60.5915C48.8407 57.9825 48.8214 55.4687 48.8214 55.4687C48.8214 55.4687 48.9937 54.4906 49.415 54.1259C49.8364 53.7612 50.181 53.5885 50.3533 53.5692C50.5669 53.495 50.7361 53.4739 50.7361 53.4739" fill="white"/>
<path d="M50.8877 61.0908H57.0527V55.2197H50.8877V61.0908Z" fill="#211E2B"/>
</svg>
