<svg width="56" height="56" viewBox="0 0 56 56" fill="none" xmlns="http://www.w3.org/2000/svg">
<path d="M55.9991 13.1312C55.9998 13.0383 55.9989 12.954 55.997 12.8612C55.7807 2.6032 55.7682 4.82034 55.9807 1.58699C55.9934 1.39441 55.8487 1.228 55.6573 1.21484C40.2205 0.153269 39.6356 0.0308679 38.4394 0.0308679C17.3806 0.0291699 28.4364 -0.316809 0.327441 1.35026C0.136446 1.36172 -0.0095091 1.52586 0.000483974 1.71774C1.81205 36.6611 1.74589 30.9608 0.820479 54.2496C0.813864 54.4169 0.92604 54.5653 1.08818 54.6038C2.95534 55.0476 2.87163 54.9425 6.26014 54.9157C7.23047 54.908 8.21616 54.8582 9.18078 54.7528C10.9448 54.5601 13.8938 54.2366 15.6004 54.0494C16.4859 53.9522 17.3718 53.976 18.2507 54.121C21.5034 54.6575 29.6464 56 29.6818 56C29.6915 56 29.701 55.9996 29.7107 55.9987C43.8338 54.8088 40.6642 55.0249 48.5765 54.5888C49.4306 54.5417 50.2962 54.6033 51.1345 54.7738L55.4937 55.6603C55.7125 55.7044 55.913 55.5345 55.9106 55.3136C55.7934 44.358 55.9847 15.2825 55.9991 13.1312ZM33.1793 12.1755C33.2211 12.1653 33.2809 12.1506 33.3555 12.1306L37.357 11.224C39.4067 10.7077 39.7096 10.5819 41.4635 9.75283C41.4636 9.7528 41.4636 9.75279 41.4637 9.75279C41.4637 9.75279 41.4637 9.7528 41.4638 9.75281C42.2737 10.0353 44.494 11.2706 45.0569 11.9798C45.4289 12.4493 45.4044 12.5537 45.2874 13.0565C45.2649 13.153 45.2391 13.2641 45.2121 13.3953C45.2103 13.4039 45.2089 13.4128 45.2076 13.4216L44.4862 19.0971C44.3948 19.8166 43.6759 20.5796 43.1436 20.0869C43.0442 19.9946 42.9205 19.88 42.7023 19.733C41.3783 18.8395 37.0452 15.6162 35.677 14.5066L33.0109 12.353C32.9984 12.3429 32.9975 12.3241 33.009 12.3129C33.0149 12.307 33.0206 12.3008 33.0261 12.2942C33.07 12.2423 33.1134 12.1918 33.1793 12.1755ZM40.3565 47.0635C39.1705 47.0483 39.0099 46.6016 38.1982 45.7368C32.9841 40.1821 12.5481 18.3995 7.10389 12.5833C6.31886 11.7446 6.42111 10.6433 7.33076 9.94173C8.14684 9.31232 9.27332 9.27309 10.1312 9.8442L47.0708 34.4356C48.5906 35.4473 49.3656 37.3939 48.975 39.1774C48.6534 40.6441 48.2908 41.7422 47.8588 42.7865C46.7638 45.4339 43.2212 47.1002 40.3565 47.0635ZM8.89869 37.3589C9.60902 35.6424 11.4669 35.151 12.8389 36.4034C14.3954 37.8243 16.2889 39.6744 17.9098 41.3199C19.8083 43.2473 18.9673 45.7363 16.4568 46.7446C14.6341 47.4756 12.9131 48.1691 11.2507 47.602C11.0849 47.5458 10.643 47.1687 9.98765 46.6C8.79073 45.5612 7.70683 44.8128 7.07657 44.4388C6.00154 43.8008 6.16903 43.9353 8.89869 37.3589Z" fill="#E9E7EC"/>
</svg>
