<svg width="51" height="51" viewBox="0 0 51 51" fill="none" xmlns="http://www.w3.org/2000/svg">
<path fill-rule="evenodd" clip-rule="evenodd" d="M31.875 40.375V31.875H40.375L40.3771 40.375H31.875ZM40.375 27.625H31.875C29.5311 27.625 27.625 29.5311 27.625 31.875V40.375C27.625 42.7189 29.5311 44.625 31.875 44.625H40.375C42.7189 44.625 44.625 42.7189 44.625 40.375V31.875C44.625 29.5311 42.7189 27.625 40.375 27.625ZM10.625 40.375V31.875H19.125L19.1271 40.375H10.625ZM19.125 27.625H10.625C8.28112 27.625 6.375 29.5311 6.375 31.875V40.375C6.375 42.7189 8.28112 44.625 10.625 44.625H19.125C21.4689 44.625 23.375 42.7189 23.375 40.375V31.875C23.375 29.5311 21.4689 27.625 19.125 27.625ZM31.875 19.125V10.625H40.375L40.3771 19.125H31.875ZM40.375 6.375H31.875C29.5311 6.375 27.625 8.28112 27.625 10.625V19.125C27.625 21.4689 29.5311 23.375 31.875 23.375H40.375C42.7189 23.375 44.625 21.4689 44.625 19.125V10.625C44.625 8.28112 42.7189 6.375 40.375 6.375ZM10.625 19.125V10.625H19.125L19.1271 19.125H10.625ZM19.125 6.375H10.625C8.28112 6.375 6.375 8.28112 6.375 10.625V19.125C6.375 21.4689 8.28112 23.375 10.625 23.375H19.125C21.4689 23.375 23.375 21.4689 23.375 19.125V10.625C23.375 8.28112 21.4689 6.375 19.125 6.375Z" fill="#1B262C"/>
<mask id="mask0" mask-type="alpha" maskUnits="userSpaceOnUse" x="6" y="6" width="39" height="39">
<path fill-rule="evenodd" clip-rule="evenodd" d="M31.875 40.375V31.875H40.375L40.3771 40.375H31.875ZM40.375 27.625H31.875C29.5311 27.625 27.625 29.5311 27.625 31.875V40.375C27.625 42.7189 29.5311 44.625 31.875 44.625H40.375C42.7189 44.625 44.625 42.7189 44.625 40.375V31.875C44.625 29.5311 42.7189 27.625 40.375 27.625ZM10.625 40.375V31.875H19.125L19.1271 40.375H10.625ZM19.125 27.625H10.625C8.28112 27.625 6.375 29.5311 6.375 31.875V40.375C6.375 42.7189 8.28112 44.625 10.625 44.625H19.125C21.4689 44.625 23.375 42.7189 23.375 40.375V31.875C23.375 29.5311 21.4689 27.625 19.125 27.625ZM31.875 19.125V10.625H40.375L40.3771 19.125H31.875ZM40.375 6.375H31.875C29.5311 6.375 27.625 8.28112 27.625 10.625V19.125C27.625 21.4689 29.5311 23.375 31.875 23.375H40.375C42.7189 23.375 44.625 21.4689 44.625 19.125V10.625C44.625 8.28112 42.7189 6.375 40.375 6.375ZM10.625 19.125V10.625H19.125L19.1271 19.125H10.625ZM19.125 6.375H10.625C8.28112 6.375 6.375 8.28112 6.375 10.625V19.125C6.375 21.4689 8.28112 23.375 10.625 23.375H19.125C21.4689 23.375 23.375 21.4689 23.375 19.125V10.625C23.375 8.28112 21.4689 6.375 19.125 6.375Z" fill="white"/>
</mask>
<g mask="url(#mask0)">
<rect width="51" height="51" fill="#E9E7EC"/>
</g>
</svg>
