<svg width="34" height="34" viewBox="0 0 34 34" fill="none" xmlns="http://www.w3.org/2000/svg">
<g clip-path="url(#clip0)">
<path d="M23.7618 4.10829C22.7035 3.21013 21.5943 2.26663 20.4652 1.24096C19.9509 0.771875 19.3399 0.421514 18.6752 0.214656C18.0106 0.00779921 17.3086 -0.0505013 16.619 0.0438782C15.9481 0.131616 15.3048 0.365481 14.7342 0.728978C14.1636 1.09247 13.6797 1.57675 13.3167 2.14763C11.9709 4.3584 10.9562 6.75439 10.3049 9.2593C9.99558 8.84804 9.59899 8.51044 9.14362 8.27079C8.68825 8.03113 8.18543 7.89538 7.67132 7.8733C7.15721 7.85122 6.6446 7.94336 6.17036 8.14308C5.69612 8.34281 5.27204 8.64515 4.92862 9.02838C2.52719 11.4842 1.19752 14.7921 1.23112 18.2268C1.1992 21.7126 2.3344 25.1088 4.45597 27.8748C6.57755 30.6407 9.56353 32.6174 12.9385 33.49C14.2614 33.8264 15.6209 33.9977 16.9859 34C19.0573 34.0028 21.1089 33.5971 23.0233 32.8062C24.9378 32.0152 26.6775 30.8546 28.1429 29.3906C29.6083 27.9266 30.7707 26.1881 31.5635 24.2744C32.3563 22.3607 32.764 20.3095 32.7633 18.2381C32.7633 11.7583 28.5926 8.21663 23.7618 4.10829ZM24.0706 27.3218C23.6653 27.6337 23.2394 27.9176 22.7956 28.1718C23.2021 27.3229 23.4151 26.3944 23.419 25.4532C23.419 22.7233 21.5164 19.5542 19.169 16.7761C18.8996 16.461 18.5652 16.2079 18.1887 16.0344C17.8122 15.8609 17.4026 15.771 16.988 15.771C16.5734 15.771 16.1638 15.8609 15.7873 16.0344C15.4108 16.2079 15.0764 16.461 14.807 16.7761C11.475 20.6833 9.38829 24.9078 11.3334 28.3333C9.54457 27.3272 8.05833 25.8598 7.02952 24.084C6.0007 22.3082 5.46698 20.289 5.48396 18.2367C5.44001 16.2268 6.11578 14.2673 7.38937 12.7117C7.5896 13.0404 7.80446 13.3582 8.03396 13.6651C8.41297 14.1769 8.93365 14.5664 9.53162 14.7854C10.1296 15.0044 10.7786 15.0435 11.3985 14.8976C12.0274 14.7574 12.6024 14.4388 13.0547 13.98C13.507 13.5211 13.8174 12.9416 13.9485 12.3108C14.4721 9.53031 15.4744 6.86183 16.9108 4.42421C16.9403 4.37581 16.9805 4.33489 17.0285 4.30465C17.0764 4.27442 17.1307 4.2557 17.187 4.24996C17.2621 4.24018 17.3384 4.2469 17.4106 4.26966C17.4827 4.29241 17.5491 4.33066 17.605 4.38171C18.7723 5.4428 19.9184 6.41746 21.012 7.34396C25.5298 11.1803 28.5133 13.719 28.5133 18.2325C28.5191 19.9871 28.1214 21.7196 27.3511 23.2961C26.5808 24.8726 25.4584 26.2509 24.0706 27.3246V27.3218Z" fill="#E9E7EC"/>
</g>
<defs>
<clipPath id="clip0">
<rect width="34" height="34" fill="white"/>
</clipPath>
</defs>
</svg>
