<svg width="44" height="44" viewBox="0 0 44 44" fill="none" xmlns="http://www.w3.org/2000/svg">
<g clip-path="url(#clip0)">
<path d="M22.0002 0C21.1026 0 20.2417 0.356592 19.6069 0.991331C18.9722 1.62607 18.6156 2.48696 18.6156 3.38462V20.3077C18.6156 21.2053 18.9722 22.0662 19.6069 22.701C20.2417 23.3357 21.1026 23.6923 22.0002 23.6923C22.8979 23.6923 23.7588 23.3357 24.3935 22.701C25.0282 22.0662 25.3848 21.2053 25.3848 20.3077V3.38462C25.3848 2.48696 25.0282 1.62607 24.3935 0.991331C23.7588 0.356592 22.8979 0 22.0002 0V0ZM9.89006 4.38985C9.40183 4.45152 8.94205 4.65377 8.56668 4.972C5.99286 7.00106 3.91319 9.58788 2.48441 12.5375C1.05562 15.4871 0.315006 18.7226 0.318371 22C0.318371 33.9443 10.0525 43.6835 22.0002 43.6835C33.9479 43.6835 43.6838 33.9443 43.6838 22C43.6838 15.1072 40.465 8.94046 35.4338 4.97031C34.9077 4.54953 34.2361 4.35495 33.5666 4.42938C32.8971 4.5038 32.2846 4.84113 31.8638 5.36715C31.4431 5.89318 31.2485 6.56481 31.3229 7.2343C31.3973 7.90379 31.7347 8.5163 32.2607 8.93708C34.2397 10.4907 35.8395 12.4742 36.939 14.7373C38.0384 17.0004 38.6088 19.4839 38.6068 22C38.6122 24.1823 38.1863 26.3442 37.3536 28.3614C36.521 30.3786 35.2979 32.2115 33.7548 33.7546C32.2117 35.2977 30.3789 36.5208 28.3616 37.3534C26.3444 38.1861 24.1825 38.612 22.0002 38.6066C19.8179 38.612 17.656 38.1861 15.6388 37.3534C13.6216 36.5208 11.7888 35.2977 10.2456 33.7546C8.70249 32.2115 7.47946 30.3786 6.64679 28.3614C5.81413 26.3442 5.38824 24.1823 5.3936 22C5.3936 16.6895 7.88299 11.9815 11.7398 8.93708C12.1879 8.60045 12.5121 8.12497 12.6616 7.58479C12.8112 7.04461 12.7778 6.47011 12.5666 5.95092C12.3554 5.43173 11.9783 4.99703 11.4941 4.71464C11.01 4.43225 10.446 4.31805 9.89006 4.38985V4.38985Z" fill="#E9E7EC"/>
</g>
<defs>
<clipPath id="clip0">
<rect width="44" height="44" fill="white"/>
</clipPath>
</defs>
</svg>
