<svg width="50" height="50" viewBox="0 0 50 50" fill="none" xmlns="http://www.w3.org/2000/svg">
<path fill-rule="evenodd" clip-rule="evenodd" d="M5.63931 0H23.8973H26.6611C31.3233 0 32.44 1.11669 34.4221 3.07091L46.5941 15.1312C48.6879 17.1971 50 18.5092 50 23.311V26.0748V43.9978L41.8481 35.9017V16.8342L34.6175 9.68733L24.986 19.2351L5.63931 0ZM45.4215 50L34.3663 39.0285V20.4076L24.986 29.732L15.6058 20.4076V40.5639L8.15187 33.1658V13.0095L0 4.91346V23.9252V26.689C0 31.4908 1.31212 32.775 3.40592 34.8688L15.5779 46.9291C17.56 48.8833 18.6767 50 23.3389 50H26.1027H45.4215ZM11.502 50L0 38.5818V50H11.502ZM38.4701 0L49.9721 11.4182V0H38.4701Z" fill="#E9E7EC"/>
</svg>
