<svg width="51" height="51" viewBox="0 0 51 51" fill="none" xmlns="http://www.w3.org/2000/svg">
<path fill-rule="evenodd" clip-rule="evenodd" d="M11.7186 33.9999L14.2261 31.4882C15.0293 30.6849 15.4713 29.6182 15.4713 28.4834V18.5448C15.4713 15.6612 16.7251 12.9051 18.9138 10.9883C21.1196 9.05457 23.9288 8.20457 26.8549 8.5892C31.7998 9.24582 35.5292 13.7168 35.5292 18.9911V28.4834C35.5292 29.6182 35.9712 30.6849 36.7723 31.4861L39.2819 33.9999H11.7186ZM29.749 38.9746C29.749 40.885 27.8025 42.5 25.499 42.5C23.1955 42.5 21.249 40.885 21.249 38.9746V38.25H29.749V38.9746ZM43.6063 32.317L39.7791 28.4835V18.9911C39.7791 11.594 34.4624 5.31033 27.4116 4.37745C23.3274 3.83345 19.2049 5.08083 16.113 7.79233C13.002 10.5166 11.2213 14.4351 11.2213 18.5448L11.2191 28.4835L7.392 32.317C6.39538 33.3157 6.1 34.8011 6.63975 36.1037C7.18163 37.4085 8.44175 38.25 9.85275 38.25H16.9991V38.9746C16.9991 43.2628 20.8114 46.75 25.4991 46.75C30.1869 46.75 33.9991 43.2628 33.9991 38.9746V38.25H41.1455C42.5565 38.25 43.8145 37.4085 44.3542 36.1058C44.8961 34.8011 44.6029 33.3136 43.6063 32.317V32.317Z" fill="#1B262C"/>
<mask id="mask0" mask-type="alpha" maskUnits="userSpaceOnUse" x="6" y="4" width="39" height="43">
<path fill-rule="evenodd" clip-rule="evenodd" d="M11.7186 33.9999L14.2261 31.4882C15.0293 30.6849 15.4713 29.6182 15.4713 28.4834V18.5448C15.4713 15.6612 16.7251 12.9051 18.9138 10.9883C21.1196 9.05457 23.9288 8.20457 26.8549 8.5892C31.7998 9.24582 35.5292 13.7168 35.5292 18.9911V28.4834C35.5292 29.6182 35.9712 30.6849 36.7723 31.4861L39.2819 33.9999H11.7186ZM29.749 38.9746C29.749 40.885 27.8025 42.5 25.499 42.5C23.1955 42.5 21.249 40.885 21.249 38.9746V38.25H29.749V38.9746ZM43.6063 32.317L39.7791 28.4835V18.9911C39.7791 11.594 34.4624 5.31033 27.4116 4.37745C23.3274 3.83345 19.2049 5.08083 16.113 7.79233C13.002 10.5166 11.2213 14.4351 11.2213 18.5448L11.2191 28.4835L7.392 32.317C6.39538 33.3157 6.1 34.8011 6.63975 36.1037C7.18163 37.4085 8.44175 38.25 9.85275 38.25H16.9991V38.9746C16.9991 43.2628 20.8114 46.75 25.4991 46.75C30.1869 46.75 33.9991 43.2628 33.9991 38.9746V38.25H41.1455C42.5565 38.25 43.8145 37.4085 44.3542 36.1058C44.8961 34.8011 44.6029 33.3136 43.6063 32.317V32.317Z" fill="white"/>
</mask>
<g mask="url(#mask0)">
<rect width="51" height="51" fill="#F24B59"/>
</g>
</svg>
