<svg width="94" height="103" viewBox="0 0 94 103" fill="none" xmlns="http://www.w3.org/2000/svg">
<path d="M92.4895 56.659L84.9705 29.6473C82.545 20.9436 77.2805 13.3 70.0134 7.93099C62.7462 2.56197 53.8933 -0.224549 44.8611 0.0141532C35.8289 0.252855 27.1355 3.50308 20.1621 9.24845C13.1887 14.9938 8.33525 22.9048 6.37289 31.7245L0.561973 57.8564C-0.204634 61.3065 -0.186709 64.8847 0.614424 68.3269C1.41556 71.7692 2.97945 74.9876 5.19068 77.7446C7.4019 80.5016 10.204 82.7269 13.3902 84.2562C16.5764 85.7856 20.0654 86.5799 23.5996 86.5805H25.3163C26.682 91.3036 29.5455 95.455 33.4753 98.4094C37.4051 101.364 42.1886 102.961 47.1051 102.961C52.0216 102.961 56.8051 101.364 60.7349 98.4094C64.6647 95.455 67.5282 91.3036 68.8939 86.5805H69.7222C73.3612 86.581 76.9511 85.74 80.2113 84.1233C83.4715 82.5066 86.3138 80.1581 88.516 77.261C90.7183 74.364 92.2209 70.9971 92.9064 67.4232C93.592 63.8493 93.442 60.1653 92.468 56.659H92.4895ZM78.2884 69.4654C77.2921 70.7881 76.001 71.8602 74.5176 72.5963C73.0343 73.3324 71.3996 73.7122 69.7436 73.7055H23.5996C21.9933 73.7052 20.4075 73.3442 18.9594 72.6491C17.5112 71.954 16.2376 70.9426 15.2325 69.6896C14.2274 68.4365 13.5165 66.9738 13.1523 65.4093C12.788 63.8448 12.7797 62.2184 13.128 60.6503L18.9389 34.4711C20.2732 28.4459 23.5848 23.0403 28.3464 19.1146C33.108 15.189 39.046 12.969 45.2151 12.8082C51.3842 12.6473 57.4298 14.5547 62.3895 18.2268C67.3493 21.8989 70.9381 27.1246 72.5847 33.072L80.0866 60.0838C80.5392 61.6795 80.6123 63.3589 80.3001 64.9878C79.9878 66.6168 79.2989 68.1502 78.2884 69.4654V69.4654Z" fill="#F24B59"/>
</svg>
