<svg width="51" height="51" viewBox="0 0 51 51" fill="none" xmlns="http://www.w3.org/2000/svg">
<path fill-rule="evenodd" clip-rule="evenodd" d="M11.7182 34L14.2257 31.4883C15.0289 30.685 15.4709 29.6183 15.4709 28.4835V18.5449C15.4709 15.6613 16.7247 12.9051 18.9134 10.9884C21.1192 9.05463 23.9284 8.20463 26.8546 8.58926C31.7994 9.24588 35.5288 13.7169 35.5288 18.9911V28.4835C35.5288 29.6183 35.9708 30.685 36.7719 31.4861L39.2816 34H11.7182ZM29.7487 38.9747C29.7487 40.8851 27.8022 42.5001 25.4987 42.5001C23.1952 42.5001 21.2487 40.8851 21.2487 38.9747V38.2501H29.7487V38.9747ZM43.6059 32.317L39.7788 28.4835V18.9911C39.7788 11.594 34.462 5.31039 27.4113 4.37751C23.327 3.83351 19.2045 5.08089 16.1126 7.79239C13.0016 10.5166 11.2209 14.4351 11.2209 18.5449L11.2188 28.4835L7.39163 32.317C6.39501 33.3158 6.09963 34.8011 6.63938 36.1038C7.18126 37.4085 8.44138 38.25 9.85238 38.25H16.9988V38.9746C16.9988 43.2629 20.811 46.75 25.4988 46.75C30.1865 46.75 33.9988 43.2629 33.9988 38.9746V38.25H41.1451C42.5561 38.25 43.8141 37.4085 44.3539 36.1059C44.8958 34.8011 44.6025 33.3136 43.6059 32.317Z" fill="#1B262C"/>
<mask id="mask0" mask-type="alpha" maskUnits="userSpaceOnUse" x="6" y="4" width="39" height="43">
<path fill-rule="evenodd" clip-rule="evenodd" d="M11.7182 34L14.2257 31.4883C15.0289 30.685 15.4709 29.6183 15.4709 28.4835V18.5449C15.4709 15.6613 16.7247 12.9051 18.9134 10.9884C21.1192 9.05463 23.9284 8.20463 26.8546 8.58926C31.7994 9.24588 35.5288 13.7169 35.5288 18.9911V28.4835C35.5288 29.6183 35.9708 30.685 36.7719 31.4861L39.2816 34H11.7182ZM29.7487 38.9747C29.7487 40.8851 27.8022 42.5001 25.4987 42.5001C23.1952 42.5001 21.2487 40.8851 21.2487 38.9747V38.2501H29.7487V38.9747ZM43.6059 32.317L39.7788 28.4835V18.9911C39.7788 11.594 34.462 5.31039 27.4113 4.37751C23.327 3.83351 19.2045 5.08089 16.1126 7.79239C13.0016 10.5166 11.2209 14.4351 11.2209 18.5449L11.2188 28.4835L7.39163 32.317C6.39501 33.3158 6.09963 34.8011 6.63938 36.1038C7.18126 37.4085 8.44138 38.25 9.85238 38.25H16.9988V38.9746C16.9988 43.2629 20.811 46.75 25.4988 46.75C30.1865 46.75 33.9988 43.2629 33.9988 38.9746V38.25H41.1451C42.5561 38.25 43.8141 37.4085 44.3539 36.1059C44.8958 34.8011 44.6025 33.3136 43.6059 32.317Z" fill="white"/>
</mask>
<g mask="url(#mask0)">
<rect width="51" height="51" fill="#E9E7EC"/>
</g>
</svg>
