<svg width="59" height="51" viewBox="0 0 59 51" fill="none" xmlns="http://www.w3.org/2000/svg">
<path fill-rule="evenodd" clip-rule="evenodd" d="M16.0003 16.1111C16.0003 14.1502 14.4057 12.5556 12.4448 12.5556C10.4839 12.5556 8.88921 14.1502 8.88921 16.1111C8.88921 18.072 10.4839 19.6667 12.4448 19.6667C14.4057 19.6667 16.0003 18.072 16.0003 16.1111ZM19.5556 16.1111C19.5556 20.0329 16.3662 23.2222 12.4444 23.2222C8.52267 23.2222 5.33333 20.0329 5.33333 16.1111C5.33333 12.1893 8.52267 9 12.4444 9C16.3662 9 19.5556 12.1893 19.5556 16.1111ZM0 39.2222C0 32.36 5.584 26.7778 12.4444 26.7778C19.3049 26.7778 24.8889 32.36 24.8889 39.2222C24.8889 40.2036 24.0942 41 23.1111 41C22.128 41 21.3333 40.2036 21.3333 39.2222C21.3333 34.3209 17.3458 30.3333 12.4444 30.3333C7.54311 30.3333 3.55556 34.3209 3.55556 39.2222C3.55556 40.2036 2.76089 41 1.77778 41C0.794667 41 0 40.2036 0 39.2222Z" fill="#F8F8F8"/>
<path fill-rule="evenodd" clip-rule="evenodd" d="M50.0003 17.1111C50.0003 15.1502 48.4057 13.5556 46.4448 13.5556C44.4839 13.5556 42.8892 15.1502 42.8892 17.1111C42.8892 19.072 44.4839 20.6667 46.4448 20.6667C48.4057 20.6667 50.0003 19.072 50.0003 17.1111ZM53.5556 17.1111C53.5556 21.0329 50.3662 24.2222 46.4444 24.2222C42.5227 24.2222 39.3333 21.0329 39.3333 17.1111C39.3333 13.1893 42.5227 10 46.4444 10C50.3662 10 53.5556 13.1893 53.5556 17.1111ZM34 40.2222C34 33.36 39.584 27.7778 46.4444 27.7778C53.3049 27.7778 58.8889 33.36 58.8889 40.2222C58.8889 41.2036 58.0942 42 57.1111 42C56.128 42 55.3333 41.2036 55.3333 40.2222C55.3333 35.3209 51.3458 31.3333 46.4444 31.3333C41.5431 31.3333 37.5556 35.3209 37.5556 40.2222C37.5556 41.2036 36.7609 42 35.7778 42C34.7947 42 34 41.2036 34 40.2222Z" fill="#F8F8F8"/>
<path fill-rule="evenodd" clip-rule="evenodd" d="M33.75 14.875C33.75 12.5311 31.8439 10.625 29.5 10.625C27.1561 10.625 25.25 12.5311 25.25 14.875C25.25 17.2189 27.1561 19.125 29.5 19.125C31.8439 19.125 33.75 17.2189 33.75 14.875ZM38 14.875C38 19.5627 34.1877 23.375 29.5 23.375C24.8123 23.375 21 19.5627 21 14.875C21 10.1872 24.8123 6.375 29.5 6.375C34.1877 6.375 38 10.1872 38 14.875ZM14.625 42.5C14.625 34.2975 21.2996 27.625 29.5 27.625C37.7004 27.625 44.375 34.2975 44.375 42.5C44.375 43.673 43.4251 44.625 42.25 44.625C41.0749 44.625 40.125 43.673 40.125 42.5C40.125 36.6414 35.3586 31.875 29.5 31.875C23.6414 31.875 18.875 36.6414 18.875 42.5C18.875 43.673 17.9251 44.625 16.75 44.625C15.5749 44.625 14.625 43.673 14.625 42.5Z" fill="#1B262C"/>
<mask id="mask0" mask-type="alpha" maskUnits="userSpaceOnUse" x="14" y="6" width="31" height="39">
<path fill-rule="evenodd" clip-rule="evenodd" d="M33.75 14.875C33.75 12.5311 31.8439 10.625 29.5 10.625C27.1561 10.625 25.25 12.5311 25.25 14.875C25.25 17.2189 27.1561 19.125 29.5 19.125C31.8439 19.125 33.75 17.2189 33.75 14.875ZM38 14.875C38 19.5627 34.1877 23.375 29.5 23.375C24.8123 23.375 21 19.5627 21 14.875C21 10.1872 24.8123 6.375 29.5 6.375C34.1877 6.375 38 10.1872 38 14.875ZM14.625 42.5C14.625 34.2975 21.2996 27.625 29.5 27.625C37.7004 27.625 44.375 34.2975 44.375 42.5C44.375 43.673 43.4251 44.625 42.25 44.625C41.0749 44.625 40.125 43.673 40.125 42.5C40.125 36.6414 35.3586 31.875 29.5 31.875C23.6414 31.875 18.875 36.6414 18.875 42.5C18.875 43.673 17.9251 44.625 16.75 44.625C15.5749 44.625 14.625 43.673 14.625 42.5Z" fill="white"/>
</mask>
<g mask="url(#mask0)">
<rect x="4" width="51" height="51" fill="#E9E7EC"/>
</g>
</svg>
