<svg width="40" height="38" viewBox="0 0 40 38" fill="none" xmlns="http://www.w3.org/2000/svg">
<path d="M8.13359 3.12906C8.28328 1.93322 8.67431 0.88828 9.23641 0L3.47489 0.594998C1.42413 0.985036 -0.126159 2.60618 0.00810212 4.70271L3.01078 34.3711C3.40139 36.4189 5.28124 37.9182 7.12448 37.8329L7.77606 37.7656C6.40974 36.274 5.59192 34.2743 5.59192 32.2068V32.0306L8.12437 3.20267L8.13359 3.12906Z" fill="#DD4752"/>
<path d="M19.9156 14.1573C21.9954 14.1573 23.6814 12.4737 23.6814 10.397C23.6814 8.32018 21.9954 6.63662 19.9156 6.63662C17.8358 6.63662 16.1498 8.32018 16.1498 10.397C16.1498 12.4737 17.8358 14.1573 19.9156 14.1573Z" fill="#DD4752"/>
<path fill-rule="evenodd" clip-rule="evenodd" d="M9.62249 32.2068C9.62249 34.2123 11.1288 35.9672 12.8862 36.2178L33.4726 37.9727C35.481 38.2234 37.2384 36.7192 37.4895 34.7137L40 6.13518C40 4.12967 38.7447 2.37485 36.7363 2.12416L16.1499 0.369336C14.1415 0.369336 12.3841 1.62278 12.133 3.62829L9.62249 32.2068ZM12.8432 22.6367L17.3472 19.1638C17.8069 18.7031 18.7261 18.9334 19.1857 19.3942L23.3224 24.4622C23.5522 24.6926 23.782 24.923 24.2417 24.923C24.7013 24.923 24.9311 24.923 25.1609 24.6926C25.8504 24.2319 25.8504 23.3104 25.3907 22.8497L24.0119 21.2371C23.5522 20.7764 23.5522 20.0853 24.0119 19.8549L30.4467 14.3261C30.9063 13.8653 31.8256 14.0957 32.2852 14.5564L36.4202 19.7922L37.6277 6.04732C37.5961 5.05768 37.0318 4.56381 36.4758 4.47806L16.0643 2.73814C15.0704 2.76886 14.5751 3.33415 14.4901 3.89037L12.8432 22.6367Z" fill="#DD4752"/>
</svg>
