<svg width="40" height="40" viewBox="0 0 40 40" fill="none" xmlns="http://www.w3.org/2000/svg">
<g clip-path="url(#clip0)">
<path d="M30.8333 0H9.16667C6.73633 0.00264695 4.40629 0.969268 2.68778 2.68778C0.969268 4.40629 0.00264695 6.73633 0 9.16667L0 30.8333C0.00264695 33.2637 0.969268 35.5937 2.68778 37.3122C4.40629 39.0307 6.73633 39.9974 9.16667 40H30.8333C33.2637 39.9974 35.5937 39.0307 37.3122 37.3122C39.0307 35.5937 39.9974 33.2637 40 30.8333V9.16667C39.9974 6.73633 39.0307 4.40629 37.3122 2.68778C35.5937 0.969268 33.2637 0.00264695 30.8333 0V0ZM35 30.8333C35 31.9384 34.561 32.9982 33.7796 33.7796C32.9982 34.561 31.9384 35 30.8333 35H30V33.3333C30 30.6812 28.9464 28.1376 27.0711 26.2623C25.1957 24.3869 22.6522 23.3333 20 23.3333C17.3478 23.3333 14.8043 24.3869 12.9289 26.2623C11.0536 28.1376 10 30.6812 10 33.3333V35H9.16667C8.0616 35 7.00179 34.561 6.22039 33.7796C5.43899 32.9982 5 31.9384 5 30.8333V9.16667C5 8.0616 5.43899 7.00179 6.22039 6.22039C7.00179 5.43899 8.0616 5 9.16667 5H30.8333C31.9384 5 32.9982 5.43899 33.7796 6.22039C34.561 7.00179 35 8.0616 35 9.16667V30.8333Z" fill="#E9E7EC"/>
<path d="M20.0003 19.9999C23.222 19.9999 25.8337 17.3882 25.8337 14.1666C25.8337 10.9449 23.222 8.33325 20.0003 8.33325C16.7787 8.33325 14.167 10.9449 14.167 14.1666C14.167 17.3882 16.7787 19.9999 20.0003 19.9999Z" fill="#E9E7EC"/>
</g>
<defs>
<clipPath id="clip0">
<rect width="40" height="40" fill="white"/>
</clipPath>
</defs>
</svg>
