<svg width="25" height="24" viewBox="0 0 25 24" fill="none" xmlns="http://www.w3.org/2000/svg">
<g clip-path="url(#clip0)">
<path d="M24.7614 22.586L18.3503 16.324C20.0157 14.3346 20.8345 11.7961 20.6374 9.23359C20.4402 6.67106 19.2423 4.28056 17.2913 2.55655C15.3403 0.832537 12.7855 -0.0930816 10.1554 -0.0288498C7.52528 0.035382 5.02105 1.08455 3.1607 2.90164C1.30034 4.71873 0.226195 7.16472 0.160434 9.73367C0.0946726 12.3026 1.04233 14.798 2.80739 16.7036C4.57244 18.6092 7.01986 19.7793 9.6434 19.9719C12.2669 20.1644 14.8659 19.3646 16.9027 17.738L23.3138 24L24.7614 22.586ZM10.4281 18C8.80817 18 7.22462 17.5308 5.87771 16.6518C4.53079 15.7727 3.481 14.5233 2.86108 13.0615C2.24116 11.5997 2.07896 9.99115 2.39499 8.4393C2.71102 6.88746 3.49109 5.46199 4.63655 4.34317C5.78201 3.22435 7.24141 2.46243 8.83021 2.15374C10.419 1.84506 12.0658 2.00349 13.5625 2.60899C15.0591 3.21449 16.3382 4.23987 17.2382 5.55546C18.1382 6.87106 18.6186 8.41778 18.6186 10C18.6161 12.121 17.7524 14.1545 16.2169 15.6542C14.6815 17.154 12.5996 17.9976 10.4281 18Z" fill="#212121" fill-opacity="0.5"/>
</g>
<defs>
<clipPath id="clip0">
<path d="M0.19043 8C0.19043 3.58172 3.77215 0 8.19043 0H16.7619C21.1801 0 24.7619 3.58172 24.7619 8V16C24.7619 20.4183 21.1801 24 16.7619 24H8.19043C3.77216 24 0.19043 20.4183 0.19043 16V8Z" fill="white"/>
</clipPath>
</defs>
</svg>
