<svg width="103" height="103" viewBox="0 0 103 103" fill="none" xmlns="http://www.w3.org/2000/svg">
<g clip-path="url(#clip0)">
<path d="M51.5007 102.5H51.4998C50.6694 102.5 49.8482 102.326 49.0892 101.989L49.0867 101.988C48.2705 101.631 38.1473 97.0393 28.2367 88.5006C18.3194 79.9562 8.69276 67.5292 8.69276 51.5L8.69276 31.1017L8.69276 31.1012C8.68753 26.2506 10.2113 21.5219 13.0475 17.5869C15.8837 13.652 19.888 10.7111 24.4913 9.18231L24.4919 9.18213L49.6184 0.805182C49.6187 0.805098 49.6189 0.805013 49.6192 0.804928C50.8407 0.401204 52.1597 0.401246 53.3812 0.805055C53.3813 0.805098 53.3814 0.80514 53.3815 0.805182L78.5081 9.18213L78.5086 9.18229C83.1115 10.7117 87.1155 13.6527 89.9516 17.5875C92.7878 21.5223 94.3118 26.2508 94.3072 31.1012V31.1017V51.5C94.3072 69.7899 84.5262 82.3119 74.4911 90.3534C64.4504 98.3992 54.1966 101.922 53.38 102.195L53.3799 102.195C52.7741 102.398 52.1395 102.501 51.5007 102.5ZM51.6581 12.7483L51.5 12.6956L51.3418 12.7483L28.2485 20.4475C26.012 21.1924 24.0666 22.6223 22.688 24.5346C21.3095 26.4468 20.5677 28.7444 20.5678 31.1017V51.5C20.5678 61.8586 26.4956 70.5126 33.2913 77.0346C40.0934 83.5628 47.8308 88.0196 51.5988 89.9888L51.8066 90.0974L52.0229 90.0071C55.8201 88.423 63.4067 84.7654 70.0511 78.5303C76.7014 72.2897 82.4322 63.4414 82.4322 51.5V31.1017C82.4323 28.7444 81.6905 26.4468 80.3119 24.5346C78.9334 22.6224 76.9881 21.1925 74.7516 20.4475C74.7515 20.4475 74.7515 20.4475 74.7514 20.4475L51.6581 12.7483Z" fill="white" stroke="white"/>
</g>
<defs>
<clipPath id="clip0">
<rect width="103" height="103" fill="white"/>
</clipPath>
</defs>
</svg>
