<svg width="103" height="103" viewBox="0 0 103 103" fill="none" xmlns="http://www.w3.org/2000/svg">
<g clip-path="url(#clip0)">
<mask id="path-1-inside-1" fill="white">
<path d="M98.1676 63.8471C97.6167 61.7142 96.6425 59.7138 95.3028 57.965C93.9632 56.2161 92.2855 54.7546 90.3696 53.6673L86.5801 51.5215L90.3739 49.3542C92.2898 48.2674 93.9672 46.806 95.3062 45.057C96.6452 43.3081 97.6183 41.3074 98.1676 39.1743C98.7405 36.9797 98.8652 34.6922 98.5341 32.4483C98.203 30.2045 97.423 28.0504 96.2406 26.1148C94.6993 23.5454 92.5555 21.3899 89.9945 19.8346C87.4335 18.2793 84.5323 17.371 81.5417 17.1881C78.4462 17.0849 75.3827 17.8426 72.6923 19.3769L68.6667 21.6772V17.1667C68.6667 12.6138 66.858 8.24737 63.6387 5.028C60.4193 1.80863 56.0529 0 51.5 0C46.9471 0 42.5807 1.80863 39.3613 5.028C36.142 8.24737 34.3333 12.6138 34.3333 17.1667V21.6772L30.3035 19.3769C27.6402 17.8505 24.6085 17.0858 21.5399 17.1667C18.5312 17.347 15.6117 18.2571 13.0335 19.8183C10.4554 21.3796 8.29608 23.545 6.7422 26.1277C5.56691 28.0598 4.79252 30.2088 4.46515 32.4465C4.13779 34.6843 4.26414 36.965 4.8367 39.1529C5.38452 41.2899 6.35738 43.2947 7.69717 45.0474C9.03696 46.8001 10.7162 48.2648 12.6347 49.3542L16.4242 51.5L12.6304 53.6673C10.7145 54.7546 9.03678 56.2161 7.69714 57.965C6.35751 59.7138 5.38328 61.7142 4.83241 63.8471C4.26125 66.0398 4.13751 68.325 4.46858 70.5665C4.79964 72.808 5.57873 74.9599 6.75937 76.8938C8.42085 79.6564 10.7797 81.9335 13.5992 83.4966C16.4187 85.0596 19.5998 85.8537 22.8231 85.799C25.4547 85.6741 28.0194 84.9285 30.3077 83.6231L34.3333 81.3228V85.8333C34.3333 90.3862 36.142 94.7526 39.3613 97.972C42.5807 101.191 46.9471 103 51.5 103C56.0529 103 60.4193 101.191 63.6387 97.972C66.858 94.7526 68.6667 90.3862 68.6667 85.8333V81.3228L72.6965 83.6231C75.3836 85.1641 78.4456 85.9293 81.5417 85.8333C84.535 85.6435 87.4378 84.731 90.0014 83.1742C92.5651 81.6173 94.7133 79.4623 96.2621 76.8938C97.4391 74.9583 98.2144 72.8057 98.5418 70.5643C98.8692 68.3228 98.7419 66.0384 98.1676 63.8471ZM84.9063 70.7524C84.3335 71.7229 83.4119 72.4382 82.3297 72.7525C81.2474 73.0667 80.0861 72.9561 79.0825 72.4433L65.4222 64.6454C64.443 64.086 63.334 63.7937 62.2063 63.7977C61.0787 63.8017 59.9718 64.1019 58.9966 64.6682C58.0214 65.2344 57.2121 66.0469 56.6496 67.0243C56.0871 68.0017 55.7913 69.1097 55.7917 70.2374V85.8333C55.7917 86.9715 55.3395 88.0632 54.5347 88.868C53.7298 89.6728 52.6382 90.125 51.5 90.125C50.3618 90.125 49.2702 89.6728 48.4653 88.868C47.6605 88.0632 47.2083 86.9715 47.2083 85.8333V70.2374C47.2065 69.1108 46.909 68.0044 46.3456 67.0288C45.7822 66.0532 44.9727 65.2425 43.9978 64.6778C43.023 64.1131 41.917 63.814 40.7904 63.8106C39.6638 63.8072 38.5561 64.0995 37.5778 64.6582L23.9217 72.4433C22.9126 72.9583 21.7446 73.0673 20.6575 72.748C19.5705 72.4288 18.647 71.7055 18.0765 70.7267C17.7516 70.2791 17.5181 69.7719 17.3895 69.2339C17.2609 68.696 17.2396 68.1381 17.3269 67.5919C17.4142 67.0458 17.6084 66.5222 17.8983 66.0512C18.1882 65.5802 18.5681 65.1711 19.0164 64.8471L32.6167 57.0792C33.6033 56.5165 34.4235 55.7028 34.994 54.7207C35.5645 53.7385 35.865 52.6229 35.865 51.4871C35.865 50.3513 35.5645 49.2357 34.994 48.2536C34.4235 47.2715 33.6033 46.4578 32.6167 45.8951L19.0207 38.1572C18.1886 37.4434 17.6382 36.4563 17.4683 35.3732C17.2984 34.2901 17.5201 33.1819 18.0937 32.2476C18.6665 31.2771 19.5881 30.5618 20.6703 30.2475C21.7526 29.9333 22.9139 30.0439 23.9175 30.5567L37.5778 38.3546C38.557 38.914 39.666 39.2063 40.7937 39.2023C41.9213 39.1983 43.0282 38.8981 44.0034 38.3318C44.9786 37.7656 45.7879 36.9531 46.3504 35.9757C46.9129 34.9983 47.2087 33.8903 47.2083 32.7626V17.1667C47.2083 16.0284 47.6605 14.9368 48.4653 14.132C49.2702 13.3272 50.3618 12.875 51.5 12.875C52.6382 12.875 53.7298 13.3272 54.5347 14.132C55.3395 14.9368 55.7917 16.0284 55.7917 17.1667V32.7626C55.7935 33.8892 56.091 34.9956 56.6544 35.9712C57.2178 36.9468 58.0273 37.7575 59.0022 38.3222C59.977 38.8869 61.083 39.186 62.2096 39.1894C63.3362 39.1928 64.4439 38.9005 65.4222 38.3417L79.0782 30.5567C80.0881 30.0415 81.2567 29.9323 82.3445 30.2516C83.4322 30.5708 84.3565 31.2942 84.9278 32.2733C85.501 33.2024 85.7211 34.3066 85.5477 35.3845C85.3744 36.4623 84.8193 37.4418 83.9836 38.1443L70.3833 45.9208C69.3967 46.4835 68.5765 47.2972 68.006 48.2793C67.4355 49.2615 67.135 50.3771 67.135 51.5129C67.135 52.6487 67.4355 53.7643 68.006 54.7464C68.5765 55.7285 69.3967 56.5422 70.3833 57.1049L83.9665 64.8557C84.8262 65.5472 85.3984 66.5334 85.5721 67.623C85.7458 68.7126 85.5085 69.8279 84.9063 70.7524Z"/>
</mask>
<path d="M98.1676 63.8471C97.6167 61.7142 96.6425 59.7138 95.3028 57.965C93.9632 56.2161 92.2855 54.7546 90.3696 53.6673L86.5801 51.5215L90.3739 49.3542C92.2898 48.2674 93.9672 46.806 95.3062 45.057C96.6452 43.3081 97.6183 41.3074 98.1676 39.1743C98.7405 36.9797 98.8652 34.6922 98.5341 32.4483C98.203 30.2045 97.423 28.0504 96.2406 26.1148C94.6993 23.5454 92.5555 21.3899 89.9945 19.8346C87.4335 18.2793 84.5323 17.371 81.5417 17.1881C78.4462 17.0849 75.3827 17.8426 72.6923 19.3769L68.6667 21.6772V17.1667C68.6667 12.6138 66.858 8.24737 63.6387 5.028C60.4193 1.80863 56.0529 0 51.5 0C46.9471 0 42.5807 1.80863 39.3613 5.028C36.142 8.24737 34.3333 12.6138 34.3333 17.1667V21.6772L30.3035 19.3769C27.6402 17.8505 24.6085 17.0858 21.5399 17.1667C18.5312 17.347 15.6117 18.2571 13.0335 19.8183C10.4554 21.3796 8.29608 23.545 6.7422 26.1277C5.56691 28.0598 4.79252 30.2088 4.46515 32.4465C4.13779 34.6843 4.26414 36.965 4.8367 39.1529C5.38452 41.2899 6.35738 43.2947 7.69717 45.0474C9.03696 46.8001 10.7162 48.2648 12.6347 49.3542L16.4242 51.5L12.6304 53.6673C10.7145 54.7546 9.03678 56.2161 7.69714 57.965C6.35751 59.7138 5.38328 61.7142 4.83241 63.8471C4.26125 66.0398 4.13751 68.325 4.46858 70.5665C4.79964 72.808 5.57873 74.9599 6.75937 76.8938C8.42085 79.6564 10.7797 81.9335 13.5992 83.4966C16.4187 85.0596 19.5998 85.8537 22.8231 85.799C25.4547 85.6741 28.0194 84.9285 30.3077 83.6231L34.3333 81.3228V85.8333C34.3333 90.3862 36.142 94.7526 39.3613 97.972C42.5807 101.191 46.9471 103 51.5 103C56.0529 103 60.4193 101.191 63.6387 97.972C66.858 94.7526 68.6667 90.3862 68.6667 85.8333V81.3228L72.6965 83.6231C75.3836 85.1641 78.4456 85.9293 81.5417 85.8333C84.535 85.6435 87.4378 84.731 90.0014 83.1742C92.5651 81.6173 94.7133 79.4623 96.2621 76.8938C97.4391 74.9583 98.2144 72.8057 98.5418 70.5643C98.8692 68.3228 98.7419 66.0384 98.1676 63.8471ZM84.9063 70.7524C84.3335 71.7229 83.4119 72.4382 82.3297 72.7525C81.2474 73.0667 80.0861 72.9561 79.0825 72.4433L65.4222 64.6454C64.443 64.086 63.334 63.7937 62.2063 63.7977C61.0787 63.8017 59.9718 64.1019 58.9966 64.6682C58.0214 65.2344 57.2121 66.0469 56.6496 67.0243C56.0871 68.0017 55.7913 69.1097 55.7917 70.2374V85.8333C55.7917 86.9715 55.3395 88.0632 54.5347 88.868C53.7298 89.6728 52.6382 90.125 51.5 90.125C50.3618 90.125 49.2702 89.6728 48.4653 88.868C47.6605 88.0632 47.2083 86.9715 47.2083 85.8333V70.2374C47.2065 69.1108 46.909 68.0044 46.3456 67.0288C45.7822 66.0532 44.9727 65.2425 43.9978 64.6778C43.023 64.1131 41.917 63.814 40.7904 63.8106C39.6638 63.8072 38.5561 64.0995 37.5778 64.6582L23.9217 72.4433C22.9126 72.9583 21.7446 73.0673 20.6575 72.748C19.5705 72.4288 18.647 71.7055 18.0765 70.7267C17.7516 70.2791 17.5181 69.7719 17.3895 69.2339C17.2609 68.696 17.2396 68.1381 17.3269 67.5919C17.4142 67.0458 17.6084 66.5222 17.8983 66.0512C18.1882 65.5802 18.5681 65.1711 19.0164 64.8471L32.6167 57.0792C33.6033 56.5165 34.4235 55.7028 34.994 54.7207C35.5645 53.7385 35.865 52.6229 35.865 51.4871C35.865 50.3513 35.5645 49.2357 34.994 48.2536C34.4235 47.2715 33.6033 46.4578 32.6167 45.8951L19.0207 38.1572C18.1886 37.4434 17.6382 36.4563 17.4683 35.3732C17.2984 34.2901 17.5201 33.1819 18.0937 32.2476C18.6665 31.2771 19.5881 30.5618 20.6703 30.2475C21.7526 29.9333 22.9139 30.0439 23.9175 30.5567L37.5778 38.3546C38.557 38.914 39.666 39.2063 40.7937 39.2023C41.9213 39.1983 43.0282 38.8981 44.0034 38.3318C44.9786 37.7656 45.7879 36.9531 46.3504 35.9757C46.9129 34.9983 47.2087 33.8903 47.2083 32.7626V17.1667C47.2083 16.0284 47.6605 14.9368 48.4653 14.132C49.2702 13.3272 50.3618 12.875 51.5 12.875C52.6382 12.875 53.7298 13.3272 54.5347 14.132C55.3395 14.9368 55.7917 16.0284 55.7917 17.1667V32.7626C55.7935 33.8892 56.091 34.9956 56.6544 35.9712C57.2178 36.9468 58.0273 37.7575 59.0022 38.3222C59.977 38.8869 61.083 39.186 62.2096 39.1894C63.3362 39.1928 64.4439 38.9005 65.4222 38.3417L79.0782 30.5567C80.0881 30.0415 81.2567 29.9323 82.3445 30.2516C83.4322 30.5708 84.3565 31.2942 84.9278 32.2733C85.501 33.2024 85.7211 34.3066 85.5477 35.3845C85.3744 36.4623 84.8193 37.4418 83.9836 38.1443L70.3833 45.9208C69.3967 46.4835 68.5765 47.2972 68.006 48.2793C67.4355 49.2615 67.135 50.3771 67.135 51.5129C67.135 52.6487 67.4355 53.7643 68.006 54.7464C68.5765 55.7285 69.3967 56.5422 70.3833 57.1049L83.9665 64.8557C84.8262 65.5472 85.3984 66.5334 85.5721 67.623C85.7458 68.7126 85.5085 69.8279 84.9063 70.7524Z" fill="#F24B59" stroke="#F24B59" stroke-width="2" mask="url(#path-1-inside-1)"/>
</g>
<defs>
<clipPath id="clip0">
<rect width="103" height="103" fill="white"/>
</clipPath>
</defs>
</svg>
