<svg width="51" height="51" viewBox="0 0 51 51" fill="none" xmlns="http://www.w3.org/2000/svg">
<path d="M18.2964 46.75C17.2594 46.7439 16.2526 46.4008 15.4276 45.7725L11.0289 42.5C10.0138 41.7086 9.34023 40.5585 9.14659 39.286C8.95295 38.0134 9.25389 36.7151 9.9876 35.6575C10.3758 35.0843 10.6225 34.4271 10.7075 33.7401C10.7925 33.053 10.7132 32.3555 10.4764 31.705L10.3489 31.365C10.1839 30.7762 9.88244 30.2346 9.46891 29.7841C9.05538 29.3337 8.54145 28.9871 7.96885 28.7725H7.62885C6.38758 28.3551 5.36107 27.4649 4.77224 26.2952C4.1834 25.1255 4.07977 23.7707 4.48385 22.525L6.22635 17C6.38676 16.3599 6.68208 15.7614 7.09254 15.2447C7.503 14.7279 8.01912 14.3048 8.60635 14.0038C9.15323 13.722 9.75158 13.5541 10.3652 13.5103C10.9788 13.4664 11.595 13.5476 12.1764 13.7487C12.8094 13.9618 13.4848 14.017 14.144 13.9096C14.8032 13.8022 15.4262 13.5354 15.9589 13.1325L16.2351 12.92C16.7173 12.5353 17.1069 12.0473 17.3754 11.4919C17.6439 10.9366 17.7843 10.3281 17.7864 9.71125V9.20125C17.7806 7.90103 18.2888 6.65119 19.2002 5.72386C20.1116 4.79653 21.3525 4.2668 22.6526 4.25H28.0714C28.7039 4.2517 29.3299 4.37836 29.9134 4.62269C30.4969 4.86702 31.0263 5.22421 31.4714 5.67375C32.407 6.62531 32.9267 7.9093 32.9164 9.24375V9.83875C32.9056 10.4247 33.0327 11.005 33.2873 11.5329C33.542 12.0607 33.9172 12.5213 34.3826 12.8775L34.6164 13.0475C35.0933 13.4051 35.6496 13.6422 36.2379 13.7384C36.8262 13.8346 37.4291 13.7871 37.9951 13.6L38.7176 13.3662C39.3297 13.1633 39.9765 13.0858 40.6192 13.1382C41.262 13.1907 41.8876 13.372 42.4587 13.6715C43.0299 13.9709 43.5349 14.3824 43.9436 14.8812C44.3523 15.3801 44.6563 15.9561 44.8376 16.575L46.5164 21.93C46.9048 23.1676 46.7986 24.5075 46.2201 25.6685C45.6416 26.8295 44.6358 27.7211 43.4139 28.1562L42.9889 28.305C42.3638 28.5097 41.7985 28.8648 41.3428 29.339C40.887 29.8133 40.5547 30.3923 40.3751 31.025C40.206 31.6132 40.1659 32.231 40.2575 32.8362C40.3492 33.4413 40.5706 34.0195 40.9064 34.5312L41.4589 35.3387C42.1916 36.4022 42.4897 37.7056 42.2921 38.9819C42.0946 40.2581 41.4163 41.4104 40.3964 42.2025L36.1251 45.4962C35.6091 45.8909 35.0177 46.1757 34.3875 46.3332C33.7573 46.4907 33.1014 46.5175 32.4604 46.412C31.8194 46.3065 31.2068 46.0709 30.6603 45.7197C30.1138 45.3685 29.6449 44.9092 29.2826 44.37L29.0276 44.0087C28.6796 43.4857 28.2047 43.0594 27.6473 42.7695C27.0899 42.4797 26.4682 42.3358 25.8401 42.3513C25.2408 42.3668 24.6535 42.5229 24.1257 42.8072C23.5979 43.0914 23.1442 43.4957 22.8014 43.9875L22.3126 44.6888C21.9502 45.2317 21.4804 45.6948 20.9322 46.0493C20.384 46.4038 19.769 46.6422 19.1251 46.75C18.8495 46.777 18.5719 46.777 18.2964 46.75ZM9.3501 24.6925C10.5501 25.1204 11.6328 25.824 12.5113 26.7467C13.3897 27.6694 14.0392 28.7855 14.4076 30.005V30.26C14.8665 31.5278 15.0171 32.8866 14.8472 34.2242C14.6772 35.5618 14.1915 36.8397 13.4301 37.9525C13.2957 38.101 13.2213 38.2941 13.2213 38.4944C13.2213 38.6946 13.2957 38.8878 13.4301 39.0363L17.9989 42.5C18.0585 42.5468 18.1274 42.5803 18.201 42.5983C18.2747 42.6163 18.3513 42.6183 18.4258 42.6042C18.5002 42.5901 18.5708 42.5603 18.6328 42.5166C18.6948 42.473 18.7467 42.4166 18.7851 42.3513L19.2739 41.65C20.011 40.5849 20.9954 39.7144 22.1427 39.1131C23.29 38.5119 24.566 38.1978 25.8614 38.1978C27.1567 38.1978 28.4327 38.5119 29.58 39.1131C30.7273 39.7144 31.7117 40.5849 32.4489 41.65L32.7039 42.0325C32.7952 42.1621 32.9316 42.253 33.0864 42.2875C33.1573 42.298 33.2297 42.294 33.2991 42.2757C33.3685 42.2574 33.4335 42.2253 33.4901 42.1813L37.8676 38.8663C38.0208 38.7446 38.1217 38.5689 38.1493 38.3752C38.177 38.1816 38.1294 37.9847 38.0164 37.825L37.4639 37.0175C36.7439 35.9678 36.269 34.7697 36.0741 33.5119C35.8791 32.254 35.9692 30.9684 36.3376 29.75C36.7111 28.4694 37.3866 27.2972 38.3074 26.3321C39.2281 25.3669 40.3673 24.637 41.6289 24.2038L42.0539 24.055C42.231 23.984 42.3728 23.8459 42.4485 23.6707C42.5241 23.4956 42.5274 23.2976 42.4576 23.12L40.8001 17.8288C40.7603 17.7362 40.7021 17.6526 40.6291 17.5832C40.556 17.5138 40.4696 17.46 40.3751 17.425C40.3125 17.3933 40.2434 17.3767 40.1732 17.3767C40.1031 17.3767 40.0339 17.3933 39.9714 17.425L39.2489 17.6588C38.0267 18.0621 36.7248 18.1626 35.4552 17.9516C34.1855 17.7407 32.9861 17.2245 31.9601 16.4475L31.8751 16.2563C30.8905 15.5106 30.0922 14.5469 29.5429 13.4408C28.9935 12.3347 28.708 11.1163 28.7089 9.88125V9.2225C28.7127 9.01768 28.6365 8.81945 28.4964 8.67C28.3741 8.55951 28.2149 8.49886 28.0501 8.5H22.6526C22.566 8.5054 22.4814 8.52785 22.4035 8.56606C22.3256 8.60426 22.2561 8.65746 22.1988 8.72262C22.1416 8.78777 22.0977 8.8636 22.0699 8.94573C22.042 9.02787 22.0306 9.1147 22.0364 9.20125V9.7325C22.0365 11.0012 21.7453 12.253 21.1853 13.3914C20.6253 14.5299 19.8114 15.5245 18.8064 16.2988L18.5301 16.5112C17.4458 17.3368 16.175 17.883 14.8298 18.1016C13.4846 18.3203 12.1063 18.2047 10.8164 17.765C10.7198 17.7326 10.6154 17.7326 10.5189 17.765C10.3989 17.8379 10.3086 17.9508 10.2639 18.0838L8.5001 23.63C8.43862 23.8189 8.45303 24.0243 8.54028 24.2028C8.62753 24.3812 8.78077 24.5188 8.9676 24.5862L9.3501 24.6925Z" fill="#E9E7EC"/>
<path d="M25.5 32.9375C24.029 32.9375 22.591 32.5013 21.3679 31.6841C20.1449 30.8668 19.1916 29.7052 18.6286 28.3462C18.0657 26.9872 17.9184 25.4918 18.2054 24.049C18.4924 22.6063 19.2007 21.2811 20.2409 20.2409C21.2811 19.2007 22.6063 18.4924 24.049 18.2054C25.4918 17.9184 26.9872 18.0657 28.3462 18.6286C29.7052 19.1916 30.8668 20.1449 31.6841 21.3679C32.5013 22.591 32.9375 24.029 32.9375 25.5C32.9375 27.4726 32.1539 29.3643 30.7591 30.7591C29.3643 32.1539 27.4726 32.9375 25.5 32.9375V32.9375ZM25.5 22.3125C24.8696 22.3125 24.2533 22.4994 23.7291 22.8497C23.2049 23.1999 22.7964 23.6978 22.5551 24.2802C22.3139 24.8626 22.2508 25.5035 22.3738 26.1219C22.4967 26.7402 22.8003 27.3081 23.2461 27.7539C23.6919 28.1997 24.2598 28.5033 24.8782 28.6263C25.4965 28.7492 26.1374 28.6861 26.7198 28.4449C27.3022 28.2036 27.8001 27.7951 28.1503 27.2709C28.5006 26.7467 28.6875 26.1304 28.6875 25.5C28.6875 24.6546 28.3517 23.8439 27.7539 23.2461C27.1561 22.6483 26.3454 22.3125 25.5 22.3125Z" fill="#E9E7EC"/>
</svg>
