<svg width="34" height="34" viewBox="0 0 34 34" fill="none" xmlns="http://www.w3.org/2000/svg">
<path d="M17 3.4C17.9389 3.4 18.7 4.16112 18.7 5.1V7.23484C18.7 7.68571 18.5209 8.11811 18.2021 8.43692C17.5382 9.10081 16.4618 9.10081 15.7979 8.43692C15.4791 8.11811 15.3 7.68571 15.3 7.23484V5.1C15.3 4.16112 16.0611 3.4 17 3.4ZM28.9 15.3C29.8389 15.3 30.6 16.0611 30.6 17C30.6 17.9389 29.8389 18.7 28.9 18.7H26.7652C26.3143 18.7 25.8819 18.5209 25.5631 18.2021C24.8992 17.5382 24.8992 16.4618 25.5631 15.7979C25.8819 15.4791 26.3143 15.3 26.7652 15.3H28.9ZM7.23484 15.3C7.68571 15.3 8.11811 15.4791 8.43692 15.7979C9.10081 16.4618 9.10081 17.5382 8.43692 18.2021C8.11811 18.5209 7.68571 18.7 7.23484 18.7H5.1C4.16112 18.7 3.4 17.9389 3.4 17C3.4 16.0611 4.16112 15.3 5.1 15.3H7.23484ZM15.7979 25.5631C16.4618 24.8992 17.5382 24.8992 18.2021 25.5631C18.5209 25.8819 18.7 26.3143 18.7 26.7652V28.9C18.7 29.8389 17.9389 30.6 17 30.6C16.0611 30.6 15.3 29.8389 15.3 28.9V26.7652C15.3 26.3143 15.4791 25.8819 15.7979 25.5631ZM22.1 5.1C22.1 2.28334 19.8167 0 17 0C14.1833 0 11.9 2.28335 11.9 5.1V7.23751C11.9 8.59012 12.4373 9.88732 13.3938 10.8438C15.3854 12.8354 18.6146 12.8354 20.6062 10.8438C21.5627 9.88732 22.1 8.59011 22.1 7.23751V5.1ZM34 17C34 14.1833 31.7167 11.9 28.9 11.9H26.7625C25.4099 11.9 24.1127 12.4373 23.1562 13.3938C21.1646 15.3854 21.1646 18.6146 23.1562 20.6062C24.1127 21.5627 25.4099 22.1 26.7625 22.1H28.9C31.7167 22.1 34 19.8167 34 17ZM10.8438 13.3938C9.88732 12.4373 8.59011 11.9 7.23751 11.9H5.1C2.28334 11.9 0 14.1833 0 17C0 19.8167 2.28335 22.1 5.1 22.1H7.23751C8.59012 22.1 9.88732 21.5627 10.8438 20.6062C12.8354 18.6146 12.8354 15.3854 10.8438 13.3938ZM20.6062 23.1562C18.6146 21.1646 15.3854 21.1646 13.3938 23.1562C12.4373 24.1127 11.9 25.4099 11.9 26.7625V28.9C11.9 31.7167 14.1833 34 17 34C19.8167 34 22.1 31.7167 22.1 28.9V26.7625C22.1 25.4099 21.5627 24.1127 20.6062 23.1562Z" fill="#E9E7EC"/>
</svg>
