<svg width="41" height="40" viewBox="0 0 41 40" fill="none" xmlns="http://www.w3.org/2000/svg">
<path d="M9.25027 8C9.25027 3.58173 12.9315 0 17.4727 0C22.0139 0 25.6952 3.58173 25.6952 8V10C25.6952 14.4183 22.0139 18 17.4727 18C12.9315 18 9.25027 14.4183 9.25027 10V8Z" fill="#22B45F"/>
<path d="M0 33C0 26.3726 5.52195 21 12.3337 21H22.6118C29.4235 21 34.9454 26.3726 34.9454 33V34C34.9454 37.3137 32.1845 40 28.7786 40H6.16684C2.76098 40 0 37.3137 0 34V33Z" fill="#22B45F"/>
<path fill-rule="evenodd" clip-rule="evenodd" d="M29.0559 12.5148C28.8777 12.3295 28.7786 12.0853 28.7786 11.8315V7.18231C28.7786 6.63 29.2388 6.18231 29.8064 6.18231H34.5762C34.8422 6.18231 35.0978 6.28259 35.2893 6.4621L40.6852 11.5192C41.0995 11.9075 41.1056 12.5508 40.699 12.9466L35.6499 17.8591C35.239 18.2588 34.5696 18.248 34.1726 17.8352L29.0559 12.5148ZM33.6847 9.5C33.6847 10.3284 32.9943 11 32.1429 11C31.2914 11 30.6012 10.3284 30.6012 9.5C30.6012 8.67157 31.2914 8 32.1429 8C32.9943 8 33.6847 8.67157 33.6847 9.5Z" fill="#22B45F"/>
</svg>
