<svg width="37" height="37" viewBox="0 0 37 37" fill="none" xmlns="http://www.w3.org/2000/svg">
<path d="M10.582 26.7553L13.8398 25.8156L33.4553 5.96622C33.6101 5.80767 33.6962 5.59463 33.6952 5.37311C33.6941 5.15159 33.606 4.93937 33.4498 4.78229L32.275 3.59466C32.1991 3.51666 32.1085 3.45456 32.0083 3.41199C31.9081 3.36942 31.8005 3.34723 31.6916 3.34671C31.5828 3.3462 31.4749 3.36737 31.3743 3.40898C31.2738 3.4506 31.1825 3.51183 31.1059 3.58911L11.5421 23.3866L10.5801 26.7534L10.582 26.7553ZM34.6005 1.24159L35.7752 2.43107C37.3958 4.07193 37.4106 6.71912 35.8048 8.34333L15.5918 28.7994L8.62839 30.8047C8.20325 30.9237 7.74827 30.8692 7.36329 30.6531C6.97831 30.4371 6.69477 30.0771 6.57489 29.6522C6.48569 29.3468 6.4844 29.0223 6.57119 28.7162L8.59694 21.6126L28.7564 1.21015C29.1397 0.82418 29.596 0.5184 30.0988 0.310639C30.6015 0.102879 31.1406 -0.00270253 31.6846 5.25606e-05C32.2286 0.00280765 32.7666 0.113844 33.2672 0.326686C33.7679 0.539528 34.2211 0.849915 34.6005 1.23974V1.24159ZM13.2904 3.37452C14.208 3.37452 14.9517 4.12742 14.9517 5.05607C14.9531 5.27559 14.9113 5.49325 14.8286 5.6966C14.7459 5.89995 14.6239 6.085 14.4696 6.24117C14.3153 6.39734 14.1317 6.52157 13.9294 6.60676C13.7271 6.69194 13.5099 6.73641 13.2904 6.73762H6.64519C4.80999 6.73762 3.32259 8.24343 3.32259 10.0989V30.2738C3.32259 32.1311 4.80999 33.6369 6.64519 33.6369H26.5808C28.416 33.6369 29.9052 32.1311 29.9052 30.2738V23.5494C29.9052 22.6208 30.6489 21.8679 31.5665 21.8679C32.4841 21.8679 33.2278 22.6208 33.2278 23.5513V30.2738C33.2278 33.9884 30.2512 37 26.5808 37H6.64519C2.9748 37 0 33.9884 0 30.2738V10.0989C0 6.38614 2.9748 3.37452 6.64519 3.37452H13.2904Z" fill="#E9E7EC"/>
</svg>
